SplineFontDB: 3.2
FontName: FdSymbolE-Bold
FullName: FdSymbolE-Bold
FamilyName: FdSymbolE
Weight: Bold
Copyright: Copyright (c) 2011-2025, Michael Ummels. This Font Software is licensed under the SIL Open Font License, Version 1.1.
Version: 1.010
ItalicAngle: 0
UnderlinePosition: -100
UnderlineWidth: 50
Ascent: 800
Descent: 200
InvalidEm: 0
LayerCount: 2
Layer: 0 0 "Back" 1
Layer: 1 0 "Fore" 0
OS2Version: 0
OS2_WeightWidthSlopeOnly: 0
OS2_UseTypoMetrics: 0
CreationTime: 1739799038
ModificationTime: 1739799038
OS2TypoAscent: 0
OS2TypoAOffset: 1
OS2TypoDescent: 0
OS2TypoDOffset: 1
OS2TypoLinegap: 0
OS2WinAscent: 0
OS2WinAOffset: 1
OS2WinDescent: 0
OS2WinDOffset: 1
HheadAscent: 0
HheadAOffset: 1
HheadDescent: 0
HheadDOffset: 1
OS2Vendor: 'PfEd'
DEI: 91125
Encoding: Custom
UnicodeInterp: none
NameList: AGL For New Fonts
DisplaySize: -48
AntiAlias: 1
FitToEm: 0
BeginPrivate: 2
BlueValues 31 [-10 0 546 556 707 717 754 764]
OtherBlues 11 [-230 -220]
EndPrivate
BeginChars: 256 128

StartChar: sym090
Encoding: 0 -1 0
Width: 1250
Flags: HW
HStem: 250 100<90 575 675 1160>
VStem: 575 100<-235 250 350 835>
LayerCount: 2
Fore
SplineSet
575 835 m 1
 675 835 l 1
 675 350 l 1
 1160 350 l 1
 1160 250 l 1
 675 250 l 1
 675 -235 l 1
 575 -235 l 1
 575 250 l 1
 90 250 l 1
 90 350 l 1
 575 350 l 1
 575 835 l 1
EndSplineSet
EndChar

StartChar: sym090.disp
Encoding: 1 -1 1
Width: 1678
Flags: HW
HStem: 250 100<90 789 889 1588>
VStem: 789 100<-449 250 350 1049>
LayerCount: 2
Fore
SplineSet
789 1049 m 1
 889 1049 l 1
 889 350 l 1
 1588 350 l 1
 1588 250 l 1
 889 250 l 1
 889 -449 l 1
 789 -449 l 1
 789 250 l 1
 90 250 l 1
 90 350 l 1
 789 350 l 1
 789 1049 l 1
EndSplineSet
EndChar

StartChar: uni2A09
Encoding: 2 10761 2
Width: 1250
Flags: HW
LayerCount: 2
Fore
SplineSet
1160 -164 m 1
 1089 -235 l 1
 625 229 l 1
 161 -235 l 1
 90 -164 l 1
 554 300 l 1
 90 764 l 1
 161 835 l 1
 625 371 l 1
 1089 835 l 1
 1160 764 l 1
 696 300 l 1
 1160 -164 l 1
EndSplineSet
EndChar

StartChar: uni2A09.disp
Encoding: 3 -1 3
Width: 1678
Flags: HW
LayerCount: 2
Fore
SplineSet
1588 -378 m 1
 1517 -449 l 1
 839 229 l 1
 161 -449 l 1
 90 -378 l 1
 768 300 l 1
 90 978 l 1
 161 1049 l 1
 839 371 l 1
 1517 1049 l 1
 1588 978 l 1
 910 300 l 1
 1588 -378 l 1
EndSplineSet
EndChar

StartChar: uni22C0
Encoding: 4 8896 4
Width: 900
Flags: HW
LayerCount: 2
Fore
SplineSet
803 -206 m 1
 708 -235 l 1
 450 613 l 1
 192 -235 l 1
 97 -206 l 1
 413 835 l 1
 487 835 l 1
 803 -206 l 1
EndSplineSet
EndChar

StartChar: uni22C0.disp
Encoding: 5 -1 5
Width: 1188
Flags: HW
LayerCount: 2
Fore
SplineSet
1091 -419 m 1
 996 -449 l 1
 594 832 l 1
 192 -449 l 1
 97 -419 l 1
 557 1049 l 1
 631 1049 l 1
 1091 -419 l 1
EndSplineSet
EndChar

StartChar: uni22C1
Encoding: 6 8897 6
Width: 900
Flags: HW
LayerCount: 2
Fore
SplineSet
97 806 m 1
 192 835 l 1
 450 -13 l 1
 708 835 l 1
 803 806 l 1
 487 -235 l 1
 413 -235 l 1
 97 806 l 1
EndSplineSet
EndChar

StartChar: uni22C1.disp
Encoding: 7 -1 7
Width: 1188
Flags: HW
LayerCount: 2
Fore
SplineSet
97 1019 m 1
 192 1049 l 1
 594 -232 l 1
 996 1049 l 1
 1091 1019 l 1
 631 -449 l 1
 557 -449 l 1
 97 1019 l 1
EndSplineSet
EndChar

StartChar: sym091
Encoding: 8 -1 8
Width: 900
Flags: HW
HStem: -73 211<408.05 491.95>
VStem: 344 212<-9.19789 74.2443>
LayerCount: 2
Fore
SplineSet
803 -206 m 1
 708 -235 l 1
 450 613 l 1
 192 -235 l 1
 97 -206 l 1
 413 835 l 1
 487 835 l 1
 803 -206 l 1
556 33 m 0
 556 11 533 -12 514 -31 c 0
 495 -50 471 -73 450 -73 c 0
 429 -73 405 -50 386 -31 c 0
 368 -12 344 11 344 33 c 0
 344 54 368 77 386 96 c 0
 405 115 429 138 450 138 c 0
 471 138 495 115 514 96 c 0
 533 77 556 54 556 33 c 0
EndSplineSet
EndChar

StartChar: sym091.disp
Encoding: 9 -1 9
Width: 1188
Flags: HW
HStem: -180 212<552.05 635.95>
VStem: 488 212<-116.198 -32.7557>
LayerCount: 2
Fore
SplineSet
1091 -419 m 1
 996 -449 l 1
 594 832 l 1
 192 -449 l 1
 97 -419 l 1
 557 1049 l 1
 631 1049 l 1
 1091 -419 l 1
700 -74 m 0
 700 -96 677 -119 658 -138 c 0
 639 -157 615 -180 594 -180 c 0
 573 -180 549 -157 530 -138 c 0
 512 -119 488 -96 488 -74 c 0
 488 -53 512 -30 530 -11 c 0
 549 8 573 32 594 32 c 0
 615 32 639 8 658 -11 c 0
 677 -30 700 -53 700 -74 c 0
EndSplineSet
EndChar

StartChar: sym092
Encoding: 10 -1 10
Width: 900
Flags: HW
HStem: 462 212<408.05 491.95>
VStem: 344 212<525.802 609.244>
LayerCount: 2
Fore
SplineSet
97 806 m 1
 192 835 l 1
 450 -13 l 1
 708 835 l 1
 803 806 l 1
 487 -235 l 1
 413 -235 l 1
 97 806 l 1
556 568 m 0
 556 546 533 523 514 504 c 0
 495 485 471 462 450 462 c 0
 429 462 405 485 386 504 c 0
 368 523 344 546 344 568 c 0
 344 589 368 612 386 631 c 0
 405 650 429 674 450 674 c 0
 471 674 495 650 514 631 c 0
 533 612 556 589 556 568 c 0
EndSplineSet
EndChar

StartChar: sym092.disp
Encoding: 11 -1 11
Width: 1188
Flags: HW
HStem: 568 212<552.05 635.95>
VStem: 488 212<632.756 716.198>
LayerCount: 2
Fore
SplineSet
97 1019 m 1
 192 1049 l 1
 594 -232 l 1
 996 1049 l 1
 1091 1019 l 1
 631 -449 l 1
 557 -449 l 1
 97 1019 l 1
700 674 m 0
 700 653 677 630 658 611 c 0
 639 592 615 568 594 568 c 0
 573 568 549 592 530 611 c 0
 512 630 488 653 488 674 c 0
 488 696 512 719 530 738 c 0
 549 757 573 780 594 780 c 0
 615 780 639 757 658 738 c 0
 677 719 700 696 700 674 c 0
EndSplineSet
EndChar

StartChar: uni2A07
Encoding: 12 10759 12
Width: 1140
Flags: HW
LayerCount: 2
Fore
SplineSet
1043 -206 m 1
 948 -235 l 1
 690 613 l 1
 622 390 l 1
 803 -206 l 1
 708 -235 l 1
 570 219 l 1
 432 -235 l 1
 337 -206 l 1
 518 390 l 1
 450 613 l 1
 192 -235 l 1
 97 -206 l 1
 413 835 l 1
 487 835 l 1
 570 562 l 1
 653 835 l 1
 727 835 l 1
 1043 -206 l 1
EndSplineSet
EndChar

StartChar: uni2A07.disp
Encoding: 13 -1 13
Width: 1524
Flags: HW
LayerCount: 2
Fore
SplineSet
1427 -419 m 1
 1332 -449 l 1
 930 832 l 1
 814 464 l 1
 1091 -419 l 1
 996 -449 l 1
 762 297 l 1
 528 -449 l 1
 433 -419 l 1
 710 464 l 1
 594 832 l 1
 192 -449 l 1
 97 -419 l 1
 557 1049 l 1
 631 1049 l 1
 762 631 l 1
 893 1049 l 1
 967 1049 l 1
 1427 -419 l 1
EndSplineSet
EndChar

StartChar: uni2A08
Encoding: 14 10760 14
Width: 1140
Flags: HW
LayerCount: 2
Fore
SplineSet
337 806 m 1
 432 835 l 1
 570 381 l 1
 708 835 l 1
 803 806 l 1
 622 210 l 1
 690 -13 l 1
 948 835 l 1
 1043 806 l 1
 727 -235 l 1
 653 -235 l 1
 570 38 l 1
 487 -235 l 1
 413 -235 l 1
 97 806 l 1
 192 835 l 1
 450 -13 l 1
 518 210 l 1
 337 806 l 1
EndSplineSet
EndChar

StartChar: uni2A08.disp
Encoding: 15 -1 15
Width: 1524
Flags: HW
LayerCount: 2
Fore
SplineSet
433 1019 m 1
 528 1049 l 1
 762 303 l 1
 996 1049 l 1
 1091 1019 l 1
 814 136 l 1
 930 -232 l 1
 1332 1049 l 1
 1427 1019 l 1
 967 -449 l 1
 893 -449 l 1
 762 -31 l 1
 631 -449 l 1
 557 -449 l 1
 97 1019 l 1
 192 1049 l 1
 594 -232 l 1
 710 136 l 1
 433 1019 l 1
EndSplineSet
EndChar

StartChar: sym093
Encoding: 16 -1 16
Width: 900
Flags: HW
VStem: 400 100<523.688 835>
LayerCount: 2
Fore
SplineSet
450 274 m 1
 404 81 321 -98 174 -235 c 1
 106 -162 l 1
 358 73 400 438 400 785 c 2
 400 835 l 1
 500 835 l 1
 500 785 l 2
 500 438 542 73 794 -162 c 1
 726 -235 l 1
 579 -98 496 81 450 274 c 1
EndSplineSet
EndChar

StartChar: sym093.disp
Encoding: 17 -1 17
Width: 1188
Flags: HW
VStem: 544 100<737.986 1049>
LayerCount: 2
Fore
SplineSet
594 384 m 1
 534 67 411 -228 174 -449 c 1
 106 -376 l 1
 473 -34 544 495 544 999 c 2
 544 1049 l 1
 644 1049 l 1
 644 999 l 2
 644 495 715 -34 1082 -376 c 1
 1014 -449 l 1
 777 -228 654 67 594 384 c 1
EndSplineSet
EndChar

StartChar: sym094
Encoding: 18 -1 18
Width: 900
Flags: HW
VStem: 400 100<-235 76.3125>
LayerCount: 2
Fore
SplineSet
450 326 m 1
 496 519 579 698 726 835 c 1
 794 762 l 1
 542 527 500 162 500 -185 c 2
 500 -235 l 1
 400 -235 l 1
 400 -185 l 2
 400 162 358 527 106 762 c 1
 174 835 l 1
 321 698 404 519 450 326 c 1
EndSplineSet
EndChar

StartChar: sym094.disp
Encoding: 19 -1 19
Width: 1188
Flags: HW
VStem: 544 100<-449 -137.986>
LayerCount: 2
Fore
SplineSet
594 216 m 1
 654 533 777 828 1014 1049 c 1
 1082 976 l 1
 715 634 644 105 644 -399 c 2
 644 -449 l 1
 544 -449 l 1
 544 -399 l 2
 544 105 473 634 106 976 c 1
 174 1049 l 1
 411 828 534 533 594 216 c 1
EndSplineSet
EndChar

StartChar: uni22C2
Encoding: 20 8898 20
Width: 900
Flags: HW
HStem: 735 100<336.271 563.729>
VStem: 90 100<-235 603.272> 710 100<-235 603.272>
LayerCount: 2
Fore
SplineSet
710 -235 m 1
 710 522 l 2
 710 649 586 735 450 735 c 0
 314 735 190 649 190 522 c 2
 190 -235 l 1
 90 -235 l 1
 90 522 l 2
 90 704 259 835 450 835 c 0
 641 835 810 704 810 522 c 2
 810 -235 l 1
 710 -235 l 1
EndSplineSet
EndChar

StartChar: uni22C2.disp
Encoding: 21 -1 21
Width: 1188
Flags: HW
HStem: 949 100<455.243 732.757>
VStem: 90 100<-449 712.105> 998 100<-449 712.105>
LayerCount: 2
Fore
SplineSet
998 -449 m 1
 998 609 l 2
 998 810 806 949 594 949 c 0
 382 949 190 810 190 609 c 2
 190 -449 l 1
 90 -449 l 1
 90 609 l 2
 90 864 327 1049 594 1049 c 0
 861 1049 1098 864 1098 609 c 2
 1098 -449 l 1
 998 -449 l 1
EndSplineSet
EndChar

StartChar: uni22C3
Encoding: 22 8899 22
Width: 900
Flags: HW
HStem: -235 100<336.271 563.729>
VStem: 90 100<-3.27197 835> 710 100<-3.27197 835>
LayerCount: 2
Fore
SplineSet
190 835 m 1
 190 78 l 2
 190 -49 314 -135 450 -135 c 0
 586 -135 710 -49 710 78 c 2
 710 835 l 1
 810 835 l 1
 810 78 l 2
 810 -104 641 -235 450 -235 c 0
 259 -235 90 -104 90 78 c 2
 90 835 l 1
 190 835 l 1
EndSplineSet
EndChar

StartChar: uni22C3.disp
Encoding: 23 -1 23
Width: 1188
Flags: HW
HStem: -449 100<455.243 732.757>
VStem: 90 100<-112.105 1049> 998 100<-112.105 1049>
LayerCount: 2
Fore
SplineSet
190 1049 m 1
 190 -9 l 2
 190 -210 382 -349 594 -349 c 0
 806 -349 998 -210 998 -9 c 2
 998 1049 l 1
 1098 1049 l 1
 1098 -9 l 2
 1098 -264 861 -449 594 -449 c 0
 327 -449 90 -264 90 -9 c 2
 90 1049 l 1
 190 1049 l 1
EndSplineSet
EndChar

StartChar: sym095
Encoding: 24 -1 24
Width: 900
Flags: HW
HStem: 60 212<408.05 491.95> 735 100<336.271 563.729>
VStem: 90 100<-235 603.272> 344 212<124.756 207.95> 710 100<-235 603.272>
CounterMasks: 1 38
LayerCount: 2
Fore
SplineSet
710 -235 m 1
 710 522 l 2
 710 649 586 735 450 735 c 0
 314 735 190 649 190 522 c 2
 190 -235 l 1
 90 -235 l 1
 90 522 l 2
 90 704 259 835 450 835 c 0
 641 835 810 704 810 522 c 2
 810 -235 l 1
 710 -235 l 1
556 166 m 0
 556 145 533 122 514 103 c 0
 495 84 471 60 450 60 c 0
 429 60 405 84 386 103 c 0
 368 122 344 145 344 166 c 0
 344 187 368 211 386 230 c 0
 405 249 429 272 450 272 c 0
 471 272 495 249 514 230 c 0
 533 211 556 187 556 166 c 0
EndSplineSet
EndChar

StartChar: sym095.disp
Encoding: 25 -1 25
Width: 1188
Flags: HW
HStem: 7 212<552.05 635.95> 949 100<455.243 732.757>
VStem: 90 100<-449 712.105> 488 212<71.0503 154.244> 998 100<-449 712.105>
CounterMasks: 1 38
LayerCount: 2
Fore
SplineSet
998 -449 m 1
 998 609 l 2
 998 810 806 949 594 949 c 0
 382 949 190 810 190 609 c 2
 190 -449 l 1
 90 -449 l 1
 90 609 l 2
 90 864 327 1049 594 1049 c 0
 861 1049 1098 864 1098 609 c 2
 1098 -449 l 1
 998 -449 l 1
700 113 m 0
 700 92 677 68 658 49 c 0
 639 30 615 7 594 7 c 0
 573 7 549 30 530 49 c 0
 512 68 488 92 488 113 c 0
 488 134 512 157 530 176 c 0
 549 195 573 219 594 219 c 0
 615 219 639 195 658 176 c 0
 677 157 700 134 700 113 c 0
EndSplineSet
EndChar

StartChar: uni2A03
Encoding: 26 10755 26
Width: 900
Flags: HW
HStem: -235 100<336.271 563.729> 328 212<408.05 491.95>
VStem: 90 100<-3.27197 835> 344 212<392.05 475.244> 710 100<-3.27197 835>
CounterMasks: 1 38
LayerCount: 2
Fore
SplineSet
190 835 m 1
 190 78 l 2
 190 -49 314 -135 450 -135 c 0
 586 -135 710 -49 710 78 c 2
 710 835 l 1
 810 835 l 1
 810 78 l 2
 810 -104 641 -235 450 -235 c 0
 259 -235 90 -104 90 78 c 2
 90 835 l 1
 190 835 l 1
556 434 m 0
 556 413 533 389 514 370 c 0
 495 351 471 328 450 328 c 0
 429 328 405 351 386 370 c 0
 368 389 344 413 344 434 c 0
 344 455 368 478 386 497 c 0
 405 516 429 540 450 540 c 0
 471 540 495 516 514 497 c 0
 533 478 556 455 556 434 c 0
EndSplineSet
EndChar

StartChar: uni2A03.disp
Encoding: 27 -1 27
Width: 1188
Flags: HW
HStem: -449 100<455.243 732.757> 381 212<552.05 635.95>
VStem: 90 100<-112.105 1049> 488 212<445.756 528.95> 998 100<-112.105 1049>
CounterMasks: 1 38
LayerCount: 2
Fore
SplineSet
190 1049 m 1
 190 -9 l 2
 190 -210 382 -349 594 -349 c 0
 806 -349 998 -210 998 -9 c 2
 998 1049 l 1
 1098 1049 l 1
 1098 -9 l 2
 1098 -264 861 -449 594 -449 c 0
 327 -449 90 -264 90 -9 c 2
 90 1049 l 1
 190 1049 l 1
700 487 m 0
 700 466 677 443 658 424 c 0
 639 405 615 381 594 381 c 0
 573 381 549 405 530 424 c 0
 512 443 488 466 488 487 c 0
 488 508 512 532 530 551 c 0
 549 570 573 593 594 593 c 0
 615 593 639 570 658 551 c 0
 677 532 700 508 700 487 c 0
EndSplineSet
EndChar

StartChar: sym096
Encoding: 28 -1 28
Width: 900
Flags: HW
HStem: 160 100<270 400 500 630> 735 100<336.271 563.729>
VStem: 90 100<-235 603.272> 400 100<30 160 260 390> 710 100<-235 603.272>
CounterMasks: 1 38
LayerCount: 2
Fore
SplineSet
710 -235 m 1
 710 522 l 2
 710 649 586 735 450 735 c 0
 314 735 190 649 190 522 c 2
 190 -235 l 1
 90 -235 l 1
 90 522 l 2
 90 704 259 835 450 835 c 0
 641 835 810 704 810 522 c 2
 810 -235 l 1
 710 -235 l 1
400 390 m 1
 500 390 l 1
 500 260 l 1
 630 260 l 1
 630 160 l 1
 500 160 l 1
 500 30 l 1
 400 30 l 1
 400 160 l 1
 270 160 l 1
 270 260 l 1
 400 260 l 1
 400 390 l 1
EndSplineSet
EndChar

StartChar: sym096.disp
Encoding: 29 -1 29
Width: 1188
Flags: HW
HStem: 124 100<342 544 644 846> 949 100<455.243 732.757>
VStem: 90 100<-449 712.105> 544 100<-78 124 224 426> 998 100<-449 712.105>
CounterMasks: 1 38
LayerCount: 2
Fore
SplineSet
998 -449 m 1
 998 609 l 2
 998 810 806 949 594 949 c 0
 382 949 190 810 190 609 c 2
 190 -449 l 1
 90 -449 l 1
 90 609 l 2
 90 864 327 1049 594 1049 c 0
 861 1049 1098 864 1098 609 c 2
 1098 -449 l 1
 998 -449 l 1
544 426 m 1
 644 426 l 1
 644 224 l 1
 846 224 l 1
 846 124 l 1
 644 124 l 1
 644 -78 l 1
 544 -78 l 1
 544 124 l 1
 342 124 l 1
 342 224 l 1
 544 224 l 1
 544 426 l 1
EndSplineSet
EndChar

StartChar: uni2A04
Encoding: 30 10756 30
Width: 900
Flags: HW
HStem: -235 100<336.271 563.729> 340 100<270 400 500 630>
VStem: 90 100<-3.27197 835> 400 100<210 340 440 570> 710 100<-3.27197 835>
CounterMasks: 1 38
LayerCount: 2
Fore
SplineSet
190 835 m 1
 190 78 l 2
 190 -49 314 -135 450 -135 c 0
 586 -135 710 -49 710 78 c 2
 710 835 l 1
 810 835 l 1
 810 78 l 2
 810 -104 641 -235 450 -235 c 0
 259 -235 90 -104 90 78 c 2
 90 835 l 1
 190 835 l 1
400 570 m 1
 500 570 l 1
 500 440 l 1
 630 440 l 1
 630 340 l 1
 500 340 l 1
 500 210 l 1
 400 210 l 1
 400 340 l 1
 270 340 l 1
 270 440 l 1
 400 440 l 1
 400 570 l 1
EndSplineSet
EndChar

StartChar: uni2A04.disp
Encoding: 31 -1 31
Width: 1188
Flags: HW
HStem: -449 100<455.243 732.757> 376 100<342 544 644 846>
VStem: 90 100<-112.105 1049> 544 100<174 376 476 678> 998 100<-112.105 1049>
CounterMasks: 1 38
LayerCount: 2
Fore
SplineSet
190 1049 m 1
 190 -9 l 2
 190 -210 382 -349 594 -349 c 0
 806 -349 998 -210 998 -9 c 2
 998 1049 l 1
 1098 1049 l 1
 1098 -9 l 2
 1098 -264 861 -449 594 -449 c 0
 327 -449 90 -264 90 -9 c 2
 90 1049 l 1
 190 1049 l 1
544 678 m 1
 644 678 l 1
 644 476 l 1
 846 476 l 1
 846 376 l 1
 644 376 l 1
 644 174 l 1
 544 174 l 1
 544 376 l 1
 342 376 l 1
 342 476 l 1
 544 476 l 1
 544 678 l 1
EndSplineSet
EndChar

StartChar: uni2A05
Encoding: 32 10757 32
Width: 900
Flags: HW
HStem: 735 100<190 710>
VStem: 90 100<-235 735> 710 100<-235 735>
LayerCount: 2
Fore
SplineSet
190 -235 m 1
 90 -235 l 1
 90 835 l 1
 810 835 l 1
 810 -235 l 1
 710 -235 l 1
 710 735 l 1
 190 735 l 1
 190 -235 l 1
EndSplineSet
EndChar

StartChar: uni2A05.disp
Encoding: 33 -1 33
Width: 1188
Flags: HW
HStem: 949 100<190 998>
VStem: 90 100<-449 949> 998 100<-449 949>
LayerCount: 2
Fore
SplineSet
190 -449 m 1
 90 -449 l 1
 90 1049 l 1
 1098 1049 l 1
 1098 -449 l 1
 998 -449 l 1
 998 949 l 1
 190 949 l 1
 190 -449 l 1
EndSplineSet
EndChar

StartChar: uni2A06
Encoding: 34 10758 34
Width: 900
Flags: HW
HStem: -235 100<190 710>
VStem: 90 100<-135 835> 710 100<-135 835>
LayerCount: 2
Fore
SplineSet
90 835 m 1
 190 835 l 1
 190 -135 l 1
 710 -135 l 1
 710 835 l 1
 810 835 l 1
 810 -235 l 1
 90 -235 l 1
 90 835 l 1
EndSplineSet
EndChar

StartChar: uni2A06.disp
Encoding: 35 -1 35
Width: 1188
Flags: HW
HStem: -449 100<190 998>
VStem: 90 100<-349 1049> 998 100<-349 1049>
LayerCount: 2
Fore
SplineSet
90 1049 m 1
 190 1049 l 1
 190 -349 l 1
 998 -349 l 1
 998 1049 l 1
 1098 1049 l 1
 1098 -449 l 1
 90 -449 l 1
 90 1049 l 1
EndSplineSet
EndChar

StartChar: sym097
Encoding: 36 -1 36
Width: 900
Flags: HW
HStem: 60 212<408.05 491.95> 735 100<190 710>
VStem: 90 100<-235 735> 344 212<124.756 207.95> 710 100<-235 735>
CounterMasks: 1 38
LayerCount: 2
Fore
SplineSet
190 -235 m 1
 90 -235 l 1
 90 835 l 1
 810 835 l 1
 810 -235 l 1
 710 -235 l 1
 710 735 l 1
 190 735 l 1
 190 -235 l 1
556 166 m 0
 556 145 533 122 514 103 c 0
 495 84 471 60 450 60 c 0
 429 60 405 84 386 103 c 0
 368 122 344 145 344 166 c 0
 344 187 368 211 386 230 c 0
 405 249 429 272 450 272 c 0
 471 272 495 249 514 230 c 0
 533 211 556 187 556 166 c 0
EndSplineSet
EndChar

StartChar: sym097.disp
Encoding: 37 -1 37
Width: 1188
Flags: HW
HStem: 7 212<552.05 635.95> 949 100<190 998>
VStem: 90 100<-449 949> 488 212<71.0503 154.244> 998 100<-449 949>
CounterMasks: 1 38
LayerCount: 2
Fore
SplineSet
190 -449 m 1
 90 -449 l 1
 90 1049 l 1
 1098 1049 l 1
 1098 -449 l 1
 998 -449 l 1
 998 949 l 1
 190 949 l 1
 190 -449 l 1
700 113 m 0
 700 92 677 68 658 49 c 0
 639 30 615 7 594 7 c 0
 573 7 549 30 530 49 c 0
 512 68 488 92 488 113 c 0
 488 134 512 157 530 176 c 0
 549 195 573 219 594 219 c 0
 615 219 639 195 658 176 c 0
 677 157 700 134 700 113 c 0
EndSplineSet
EndChar

StartChar: sym098
Encoding: 38 -1 38
Width: 900
Flags: HW
HStem: -235 100<190 710> 328 212<408.05 491.95>
VStem: 90 100<-135 835> 344 212<392.05 475.244> 710 100<-135 835>
CounterMasks: 1 38
LayerCount: 2
Fore
SplineSet
90 835 m 1
 190 835 l 1
 190 -135 l 1
 710 -135 l 1
 710 835 l 1
 810 835 l 1
 810 -235 l 1
 90 -235 l 1
 90 835 l 1
556 434 m 0
 556 413 533 389 514 370 c 0
 495 351 471 328 450 328 c 0
 429 328 405 351 386 370 c 0
 368 389 344 413 344 434 c 0
 344 455 368 478 386 497 c 0
 405 516 429 540 450 540 c 0
 471 540 495 516 514 497 c 0
 533 478 556 455 556 434 c 0
EndSplineSet
EndChar

StartChar: sym098.disp
Encoding: 39 -1 39
Width: 1188
Flags: HW
HStem: -449 100<190 998> 381 212<552.05 635.95>
VStem: 90 100<-349 1049> 488 212<445.756 528.95> 998 100<-349 1049>
CounterMasks: 1 38
LayerCount: 2
Fore
SplineSet
90 1049 m 1
 190 1049 l 1
 190 -349 l 1
 998 -349 l 1
 998 1049 l 1
 1098 1049 l 1
 1098 -449 l 1
 90 -449 l 1
 90 1049 l 1
700 487 m 0
 700 466 677 443 658 424 c 0
 639 405 615 381 594 381 c 0
 573 381 549 405 530 424 c 0
 512 443 488 466 488 487 c 0
 488 508 512 532 530 551 c 0
 549 570 573 593 594 593 c 0
 615 593 639 570 658 551 c 0
 677 532 700 508 700 487 c 0
EndSplineSet
EndChar

StartChar: sym099
Encoding: 40 -1 40
Width: 900
Flags: HW
HStem: 160 100<270 400 500 630> 735 100<190 710>
VStem: 90 100<-235 735> 400 100<30 160 260 390> 710 100<-235 735>
CounterMasks: 1 38
LayerCount: 2
Fore
SplineSet
190 -235 m 1
 90 -235 l 1
 90 835 l 1
 810 835 l 1
 810 -235 l 1
 710 -235 l 1
 710 735 l 1
 190 735 l 1
 190 -235 l 1
400 390 m 1
 500 390 l 1
 500 260 l 1
 630 260 l 1
 630 160 l 1
 500 160 l 1
 500 30 l 1
 400 30 l 1
 400 160 l 1
 270 160 l 1
 270 260 l 1
 400 260 l 1
 400 390 l 1
EndSplineSet
EndChar

StartChar: sym099.disp
Encoding: 41 -1 41
Width: 1188
Flags: HW
HStem: 124 100<342 544 644 846> 949 100<190 998>
VStem: 90 100<-449 949> 544 100<-78 124 224 426> 998 100<-449 949>
CounterMasks: 1 38
LayerCount: 2
Fore
SplineSet
190 -449 m 1
 90 -449 l 1
 90 1049 l 1
 1098 1049 l 1
 1098 -449 l 1
 998 -449 l 1
 998 949 l 1
 190 949 l 1
 190 -449 l 1
544 426 m 1
 644 426 l 1
 644 224 l 1
 846 224 l 1
 846 124 l 1
 644 124 l 1
 644 -78 l 1
 544 -78 l 1
 544 124 l 1
 342 124 l 1
 342 224 l 1
 544 224 l 1
 544 426 l 1
EndSplineSet
EndChar

StartChar: sym09A
Encoding: 42 -1 42
Width: 900
Flags: HW
HStem: -235 100<190 710> 340 100<270 400 500 630>
VStem: 90 100<-135 835> 400 100<210 340 440 570> 710 100<-135 835>
CounterMasks: 1 38
LayerCount: 2
Fore
SplineSet
90 835 m 1
 190 835 l 1
 190 -135 l 1
 710 -135 l 1
 710 835 l 1
 810 835 l 1
 810 -235 l 1
 90 -235 l 1
 90 835 l 1
400 570 m 1
 500 570 l 1
 500 440 l 1
 630 440 l 1
 630 340 l 1
 500 340 l 1
 500 210 l 1
 400 210 l 1
 400 340 l 1
 270 340 l 1
 270 440 l 1
 400 440 l 1
 400 570 l 1
EndSplineSet
EndChar

StartChar: sym09A.disp
Encoding: 43 -1 43
Width: 1188
Flags: HW
HStem: -449 100<190 998> 376 100<342 544 644 846>
VStem: 90 100<-349 1049> 544 100<174 376 476 678> 998 100<-349 1049>
CounterMasks: 1 38
LayerCount: 2
Fore
SplineSet
90 1049 m 1
 190 1049 l 1
 190 -349 l 1
 998 -349 l 1
 998 1049 l 1
 1098 1049 l 1
 1098 -449 l 1
 90 -449 l 1
 90 1049 l 1
544 678 m 1
 644 678 l 1
 644 476 l 1
 846 476 l 1
 846 376 l 1
 644 376 l 1
 644 174 l 1
 544 174 l 1
 544 376 l 1
 342 376 l 1
 342 476 l 1
 544 476 l 1
 544 678 l 1
EndSplineSet
EndChar

StartChar: uni2A01
Encoding: 44 10753 44
Width: 1250
Flags: HW
HStem: -235 103<491.453 575 675 758.547> 250 100<193 575 675 1057> 732 103<491.453 575 675 758.547>
VStem: 90 103<166.453 250 350 433.547> 575 100<-132 250 350 732> 1057 103<166.453 250 350 433.547>
CounterMasks: 1 fc
LayerCount: 2
Fore
SplineSet
675 350 m 1
 1057 350 l 1
 1034 551 876 709 675 732 c 1
 675 350 l 1
575 350 m 1
 575 732 l 1
 374 709 216 551 193 350 c 1
 575 350 l 1
675 250 m 1
 675 -132 l 1
 876 -109 1034 49 1057 250 c 1
 675 250 l 1
575 250 m 1
 193 250 l 1
 216 49 374 -109 575 -132 c 1
 575 250 l 1
625 835 m 0
 920 835 1160 595 1160 300 c 0
 1160 5 920 -235 625 -235 c 0
 330 -235 90 5 90 300 c 0
 90 595 330 835 625 835 c 0
EndSplineSet
EndChar

StartChar: uni2A01.disp
Encoding: 45 -1 45
Width: 1678
Flags: HW
HStem: -449 102<672.785 789 889 1005.21> 250 100<192 789 889 1486> 947 102<672.785 789 889 1005.21>
VStem: 90 102<133.785 250 350 466.215> 789 100<-347 250 350 947> 1486 102<133.785 250 350 466.215>
CounterMasks: 1 fc
LayerCount: 2
Fore
SplineSet
889 350 m 1
 1486 350 l 1
 1461 669 1208 922 889 947 c 1
 889 350 l 1
789 350 m 1
 789 947 l 1
 470 922 217 669 192 350 c 1
 789 350 l 1
889 250 m 1
 889 -347 l 1
 1208 -322 1461 -69 1486 250 c 1
 889 250 l 1
789 250 m 1
 192 250 l 1
 217 -69 470 -322 789 -347 c 1
 789 250 l 1
839 1049 m 0
 1253 1049 1588 714 1588 300 c 0
 1588 -114 1253 -449 839 -449 c 0
 425 -449 90 -114 90 300 c 0
 90 714 425 1049 839 1049 c 0
EndSplineSet
EndChar

StartChar: uni2A02
Encoding: 46 10754 46
Width: 1250
Flags: HW
HStem: -235 100<490.855 759.145> 735 100<490.855 759.145>
VStem: 90 100<165.855 434.145> 1060 100<165.855 434.145>
LayerCount: 2
Fore
SplineSet
625 370 m 1
 896 641 l 1
 819 701 723 735 625 735 c 0
 527 735 431 701 354 641 c 1
 625 370 l 1
555 300 m 1
 284 571 l 1
 224 494 190 398 190 300 c 0
 190 202 224 106 284 29 c 1
 555 300 l 1
695 300 m 1
 966 29 l 1
 1026 106 1060 202 1060 300 c 0
 1060 398 1026 494 966 571 c 1
 695 300 l 1
625 230 m 1
 354 -41 l 1
 431 -101 527 -135 625 -135 c 0
 723 -135 819 -101 896 -41 c 1
 625 230 l 1
625 835 m 0
 920 835 1160 595 1160 300 c 0
 1160 5 920 -235 625 -235 c 0
 330 -235 90 5 90 300 c 0
 90 595 330 835 625 835 c 0
EndSplineSet
EndChar

StartChar: uni2A02.disp
Encoding: 47 -1 47
Width: 1678
Flags: HW
HStem: -449 100<681.54 996.46> 949 100<681.54 996.46>
VStem: 90 100<142.54 457.46> 1488 100<142.54 457.46>
LayerCount: 2
Fore
SplineSet
839 371 m 1
 1261 793 l 1
 1144 893 994 949 839 949 c 0
 684 949 534 893 417 793 c 1
 839 371 l 1
768 300 m 1
 346 722 l 1
 246 605 190 455 190 300 c 0
 190 145 246 -5 346 -122 c 1
 768 300 l 1
910 300 m 1
 1332 -122 l 1
 1432 -5 1488 145 1488 300 c 0
 1488 455 1432 605 1332 722 c 1
 910 300 l 1
839 229 m 1
 417 -193 l 1
 534 -293 684 -349 839 -349 c 0
 994 -349 1144 -293 1261 -193 c 1
 839 229 l 1
839 1049 m 0
 1253 1049 1588 714 1588 300 c 0
 1588 -114 1253 -449 839 -449 c 0
 425 -449 90 -114 90 300 c 0
 90 714 425 1049 839 1049 c 0
EndSplineSet
EndChar

StartChar: uni2A00
Encoding: 48 10752 48
Width: 1250
Flags: HW
HStem: -235 100<493.594 756.406> 194 212<583.05 666.95> 735 100<493.594 756.406>
VStem: 90 100<168.594 431.406> 519 212<258.05 341.95> 1060 100<168.594 431.406>
CounterMasks: 1 fc
LayerCount: 2
Fore
SplineSet
625 835 m 0
 920 835 1160 595 1160 300 c 0
 1160 5 920 -235 625 -235 c 0
 330 -235 90 5 90 300 c 0
 90 595 330 835 625 835 c 0
625 -135 m 0
 865 -135 1060 60 1060 300 c 0
 1060 540 865 735 625 735 c 0
 385 735 190 540 190 300 c 0
 190 60 385 -135 625 -135 c 0
731 300 m 0
 731 279 708 255 689 236 c 0
 670 217 646 194 625 194 c 0
 604 194 580 217 561 236 c 0
 542 255 519 279 519 300 c 0
 519 321 542 345 561 364 c 0
 580 383 604 406 625 406 c 0
 646 406 670 383 689 364 c 0
 708 345 731 321 731 300 c 0
EndSplineSet
EndChar

StartChar: uni2A00.disp
Encoding: 49 -1 49
Width: 1678
Flags: HW
HStem: -449 100<682.451 995.549> 194 212<797.05 880.95> 949 100<682.451 995.549>
VStem: 90 100<143.451 456.549> 733 212<258.05 341.95> 1488 100<143.451 456.549>
CounterMasks: 1 fc
LayerCount: 2
Fore
SplineSet
839 1049 m 0
 1253 1049 1588 714 1588 300 c 0
 1588 -114 1253 -449 839 -449 c 0
 425 -449 90 -114 90 300 c 0
 90 714 425 1049 839 1049 c 0
839 -349 m 0
 1197 -349 1488 -58 1488 300 c 0
 1488 658 1197 949 839 949 c 0
 481 949 190 658 190 300 c 0
 190 -58 481 -349 839 -349 c 0
945 300 m 0
 945 279 922 255 903 236 c 0
 884 217 860 194 839 194 c 0
 818 194 794 217 775 236 c 0
 756 255 733 279 733 300 c 0
 733 321 756 345 775 364 c 0
 794 383 818 406 839 406 c 0
 860 406 884 383 903 364 c 0
 922 345 945 321 945 300 c 0
EndSplineSet
EndChar

StartChar: sym09B
Encoding: 50 -1 50
Width: 1250
Flags: HW
HStem: -235 105<478.704 560 690 771.296> 730 105<478.704 560 690 771.296>
VStem: 90 100<165.586 434.414> 560 130<-130 67.1667 532.833 730> 572 106<10.8333 208 392 589.167> 1060 100<165.586 434.414>
LayerCount: 2
Fore
SplineSet
678 392 m 1xec
 966 571 l 1
 932 615 842 707 690 730 c 1xf4
 678 392 l 1xec
572 392 m 1xec
 560 730 l 1xf4
 463 715 358 665 284 571 c 1
 572 392 l 1xec
519 300 m 1
 220 459 l 1
 200 409 190 355 190 300 c 0
 190 245 200 191 220 141 c 1
 519 300 l 1
572 208 m 1xec
 284 29 l 1
 318 -15 408 -107 560 -130 c 1xf4
 572 208 l 1xec
678 208 m 1xec
 690 -130 l 1xf4
 787 -115 892 -65 966 29 c 1
 678 208 l 1xec
731 300 m 1
 1030 141 l 1
 1050 191 1060 245 1060 300 c 0
 1060 355 1050 409 1030 459 c 1
 731 300 l 1
625 835 m 0
 920 835 1160 595 1160 300 c 0
 1160 5 920 -235 625 -235 c 0
 330 -235 90 5 90 300 c 0
 90 595 330 835 625 835 c 0
EndSplineSet
EndChar

StartChar: sym09B.disp
Encoding: 51 -1 51
Width: 1678
Flags: HW
HStem: -449 103<669.742 773 905 1008.26> 946 103<669.742 773 905 1008.26>
VStem: 90 100<141.592 458.408> 773 132<-346 -68 668 946> 787 104<-68 210 390 668> 1488 100<141.592 458.408>
LayerCount: 2
Fore
SplineSet
891 390 m 1xec
 1366 679 l 1
 1313 753 1166 920 905 946 c 1xf4
 891 390 l 1xec
787 390 m 1xec
 773 946 l 1xf4
 682 937 465 892 312 679 c 1
 787 390 l 1xec
735 300 m 1
 247 566 l 1
 210 483 190 393 190 300 c 0
 190 207 210 117 247 34 c 1
 735 300 l 1
787 210 m 1xec
 312 -79 l 1
 365 -153 512 -320 773 -346 c 1xf4
 787 210 l 1xec
891 210 m 1xec
 905 -346 l 1xf4
 996 -337 1213 -292 1366 -79 c 1
 891 210 l 1xec
943 300 m 1
 1431 34 l 1
 1468 117 1488 207 1488 300 c 0
 1488 393 1468 483 1431 566 c 1
 943 300 l 1
839 1049 m 0
 1253 1049 1588 714 1588 300 c 0
 1588 -114 1253 -449 839 -449 c 0
 425 -449 90 -114 90 300 c 0
 90 714 425 1049 839 1049 c 0
EndSplineSet
EndChar

StartChar: product
Encoding: 52 8719 52
Width: 1080
Flags: HW
HStem: -235 62<101 160.625 390.375 450 630 689.625 919.375 979> 735 100<344 736> 773 62<93 161.929 918.071 987>
VStem: 207 137<-139.533 734.29> 736 137<-139.533 734.29>
LayerCount: 2
Fore
SplineSet
101 -235 m 1xd8
 90 -173 l 1
 140 -160 207 -142 207 -114 c 2
 207 714 l 2
 207 742 142 760 93 773 c 1
 90 835 l 1
 990 835 l 1
 987 773 l 1xb8
 938 760 873 742 873 714 c 2
 873 -114 l 2
 873 -142 940 -160 990 -173 c 1
 979 -235 l 1
 630 -235 l 1
 619 -173 l 1
 669 -160 736 -142 736 -114 c 2
 736 735 l 1
 344 735 l 1
 344 -114 l 2
 344 -142 411 -160 461 -173 c 1
 450 -235 l 1
 101 -235 l 1xd8
EndSplineSet
EndChar

StartChar: product.disp
Encoding: 53 -1 53
Width: 1440
Flags: HW
HStem: -449 67<102 161.667 478.616 539 901 961.667 1278.33 1338> 940 109<395 1045> 981 68<94 167.248 1272.75 1346>
VStem: 245 150<-332.699 934.062> 1045 150<-332.699 934.062>
LayerCount: 2
Fore
SplineSet
102 -449 m 1xd8
 90 -382 l 1
 156 -364 245 -340 245 -303 c 2
 245 903 l 2
 245 940 159 964 94 981 c 1
 90 1049 l 1
 1350 1049 l 1
 1346 981 l 1xb8
 1281 964 1195 940 1195 903 c 2
 1195 -303 l 2
 1195 -340 1284 -364 1350 -382 c 1
 1338 -449 l 1
 901 -449 l 1
 890 -382 l 1
 956 -364 1045 -340 1045 -303 c 2
 1045 940 l 1
 395 940 l 1
 395 -303 l 2
 395 -340 484 -364 551 -382 c 1
 539 -449 l 1
 102 -449 l 1xd8
EndSplineSet
EndChar

StartChar: product.sf
Encoding: 54 -1 54
Width: 1080
Flags: HW
HStem: 702 133<90 212 345 735 868 990>
VStem: 212 133<-235 702> 735 133<-235 702>
LayerCount: 2
Fore
SplineSet
212 -235 m 1
 212 702 l 1
 90 702 l 1
 90 835 l 1
 990 835 l 1
 990 702 l 1
 868 702 l 1
 868 -235 l 1
 735 -235 l 1
 735 702 l 1
 345 702 l 1
 345 -235 l 1
 212 -235 l 1
EndSplineSet
EndChar

StartChar: product.sf.disp
Encoding: 55 -1 55
Width: 1440
Flags: HW
HStem: 904 145<90 244 390 1051 1196 1350>
VStem: 244 146<-449 904> 1051 145<-449 904>
LayerCount: 2
Fore
SplineSet
244 -449 m 1
 244 904 l 1
 90 904 l 1
 90 1049 l 1
 1350 1049 l 1
 1350 904 l 1
 1196 904 l 1
 1196 -449 l 1
 1051 -449 l 1
 1051 904 l 1
 390 904 l 1
 390 -449 l 1
 244 -449 l 1
EndSplineSet
EndChar

StartChar: uni2210
Encoding: 56 8720 56
Width: 1080
Flags: HW
HStem: -235 100<344 736> -235 62<93 161.929 918.071 987> 773 62<101 160.625 390.375 450 630 689.625 919.375 979>
VStem: 207 137<-134.29 739.533> 736 137<-134.29 739.533>
LayerCount: 2
Fore
SplineSet
101 835 m 1x78
 450 835 l 1
 461 773 l 1
 411 760 344 742 344 714 c 2
 344 -135 l 1
 736 -135 l 1xb8
 736 714 l 2
 736 742 669 760 619 773 c 1
 630 835 l 1
 979 835 l 1
 990 773 l 1
 940 760 873 742 873 714 c 2
 873 -114 l 2
 873 -142 938 -160 987 -173 c 1
 990 -235 l 1
 90 -235 l 1
 93 -173 l 1
 142 -160 207 -142 207 -114 c 2
 207 714 l 2
 207 742 140 760 90 773 c 1
 101 835 l 1x78
EndSplineSet
EndChar

StartChar: uni2210.disp
Encoding: 57 -1 57
Width: 1440
Flags: HW
HStem: -449 109<395 1045> -449 68<94 167.248 1272.75 1346> 982 67<102 161.667 478.616 539 901 961.667 1278.33 1338>
VStem: 245 150<-334.062 932.699> 1045 150<-334.062 932.699>
LayerCount: 2
Fore
SplineSet
102 1049 m 1x78
 539 1049 l 1
 551 982 l 1
 484 964 395 940 395 903 c 2
 395 -340 l 1
 1045 -340 l 1xb8
 1045 903 l 2
 1045 940 956 964 890 982 c 1
 901 1049 l 1
 1338 1049 l 1
 1350 982 l 1
 1284 964 1195 940 1195 903 c 2
 1195 -303 l 2
 1195 -340 1281 -364 1346 -381 c 1
 1350 -449 l 1
 90 -449 l 1
 94 -381 l 1
 159 -364 245 -340 245 -303 c 2
 245 903 l 2
 245 940 156 964 90 982 c 1
 102 1049 l 1x78
EndSplineSet
EndChar

StartChar: uni2210.sf
Encoding: 58 -1 58
Width: 1080
Flags: HW
HStem: -235 133<90 212 345 735 868 990>
VStem: 212 133<-102 835> 735 133<-102 835>
LayerCount: 2
Fore
SplineSet
212 835 m 1
 345 835 l 1
 345 -102 l 1
 735 -102 l 1
 735 835 l 1
 868 835 l 1
 868 -102 l 1
 990 -102 l 1
 990 -235 l 1
 90 -235 l 1
 90 -102 l 1
 212 -102 l 1
 212 835 l 1
EndSplineSet
EndChar

StartChar: uni2210.sf.disp
Encoding: 59 -1 59
Width: 1440
Flags: HW
HStem: -449 145<90 244 390 1051 1196 1350>
VStem: 244 146<-304 1049> 1051 145<-304 1049>
LayerCount: 2
Fore
SplineSet
244 1049 m 1
 390 1049 l 1
 390 -304 l 1
 1051 -304 l 1
 1051 1049 l 1
 1196 1049 l 1
 1196 -304 l 1
 1350 -304 l 1
 1350 -449 l 1
 90 -449 l 1
 90 -304 l 1
 244 -304 l 1
 244 1049 l 1
EndSplineSet
EndChar

StartChar: summation
Encoding: 60 8721 60
Width: 900
Flags: HW
HStem: 743 92<267 687.031>
VStem: 760 50<629 669.938>
LayerCount: 2
Fore
SplineSet
113 -235 m 1
 90 -135 l 1
 364 285 l 1
 90 723 l 1
 116 835 l 1
 810 835 l 1
 810 629 l 1
 760 629 l 1
 736 686 691 737 630 738 c 2
 267 743 l 1
 536 315 l 1
 241 -135 l 1
 606 -107 l 2
 683 -101 769 -93 786 -23 c 1
 834 -34 l 1
 778 -235 l 1
 113 -235 l 1
EndSplineSet
EndChar

StartChar: summation.disp
Encoding: 61 -1 61
Width: 1188
Flags: HW
HStem: -449 140<691.742 991.312> -239 20G<1062.5 1125> 949 100<281 933.312>
VStem: 1044 54<825 861.139>
LayerCount: 2
Fore
SplineSet
115 -449 m 1
 90 -340 l 1
 502 284 l 1
 90 928 l 1
 118 1049 l 1
 1098 1049 l 1
 1098 825 l 1
 1044 825 l 1
 1011 901 930 943 846 944 c 2
 281 949 l 1
 686 316 l 1
 252 -340 l 1
 820 -309 l 2
 925 -304 1053 -297 1072 -219 c 1
 1125 -231 l 1
 1063 -449 l 1
 115 -449 l 1
EndSplineSet
EndChar

StartChar: summation.sf
Encoding: 62 -1 62
Width: 900
Flags: HW
HStem: -235 138<264 810> 698 137<264 810>
LayerCount: 2
Fore
SplineSet
90 -235 m 1
 90 -97 l 1
 363 300 l 1
 90 698 l 1
 90 835 l 1
 810 835 l 1
 810 698 l 1
 264 698 l 1
 537 300 l 1
 264 -97 l 1
 810 -97 l 1
 810 -235 l 1
 90 -235 l 1
EndSplineSet
EndChar

StartChar: summation.sf.disp
Encoding: 63 -1 63
Width: 1188
Flags: HW
HStem: -449 150<277 1098> 899 150<277 1098>
LayerCount: 2
Fore
SplineSet
90 -449 m 1
 90 -299 l 1
 501 300 l 1
 90 899 l 1
 90 1049 l 1
 1098 1049 l 1
 1098 899 l 1
 277 899 l 1
 687 300 l 1
 277 -299 l 1
 1098 -299 l 1
 1098 -449 l 1
 90 -449 l 1
EndSplineSet
EndChar

StartChar: uni2A0A
Encoding: 64 10762 64
Width: 900
Flags: HW
HStem: 70 100<441.377 518.757> 743 92<267 687.031>
VStem: 220 100<241.224 342.372> 580 100<230.542 370.238> 760 50<629 669.938>
LayerCount: 2
Fore
SplineSet
328 343 m 1
 323 329 320 315 320 300 c 0
 320 279 326 258 335 240 c 1
 364 285 l 1
 328 343 l 1
450 530 m 0
 578 530 680 428 680 300 c 0
 680 172 578 70 450 70 c 0
 427 70 404 73 382 80 c 1
 241 -135 l 1
 606 -107 l 2
 683 -101 769 -93 786 -23 c 1
 834 -34 l 1
 778 -235 l 1
 113 -235 l 1
 90 -135 l 1
 276 149 l 1
 240 191 220 245 220 300 c 0
 220 351 237 400 267 440 c 1
 90 723 l 1
 116 835 l 1
 810 835 l 1
 810 629 l 1
 760 629 l 1
 736 686 691 737 630 738 c 2
 267 743 l 1
 404 525 l 1
 419 528 434 530 450 530 c 0
450 170 m 0
 522 170 580 228 580 300 c 0
 580 364 532 421 464 429 c 1
 536 315 l 1
 441 170 l 1
 444 170 447 170 450 170 c 0
EndSplineSet
EndChar

StartChar: uni2A0A.disp
Encoding: 65 -1 65
Width: 1188
Flags: HW
HStem: -449 140<691.742 991.312> -239 20G<1062.5 1125> -53 109<522.554 692.018> 544 109<545.192 692.018> 949 100<281 933.312>
VStem: 241 109<199.77 399.446> 838 109<201.982 398.018> 1044 54<825 861.139>
LayerCount: 2
Fore
SplineSet
399 446 m 1
 368 405 350 353 350 300 c 0
 350 242 370 185 408 142 c 1
 502 284 l 1
 399 446 l 1
594 653 m 0
 787 653 947 493 947 300 c 0
 947 107 787 -53 594 -53 c 0
 547 -53 502 -44 460 -26 c 1
 252 -340 l 1
 820 -309 l 2
 925 -304 1053 -297 1072 -219 c 1
 1125 -231 l 1
 1063 -449 l 1
 115 -449 l 1
 90 -340 l 1
 347 49 l 1
 310 85 241 171 241 300 c 0
 241 390 276 476 337 541 c 1
 90 928 l 1
 118 1049 l 1
 1098 1049 l 1
 1098 825 l 1
 1044 825 l 1
 1011 901 930 943 846 944 c 2
 281 949 l 1
 482 635 l 1
 518 647 555 653 594 653 c 0
594 56 m 0
 728 56 838 166 838 300 c 0
 838 434 728 544 594 544 c 0
 577 544 560 542 544 539 c 1
 686 316 l 1
 521 67 l 1
 544 60 569 56 594 56 c 0
EndSplineSet
EndChar

StartChar: uni2A0A.sf
Encoding: 66 -1 66
Width: 900
Flags: HW
HStem: -235 138<264 810> 70 100<448.969 518.757> 430 100<448.969 518.757> 698 137<264 810>
VStem: 220 100<252.346 347.654> 580 100<230.542 369.458>
LayerCount: 2
Fore
SplineSet
330 349 m 1
 324 334 320 317 320 300 c 0
 320 283 324 266 330 251 c 1
 363 300 l 1
 330 349 l 1
450 530 m 0
 578 530 680 428 680 300 c 0
 680 172 578 70 450 70 c 0
 428 70 406 73 385 79 c 1
 264 -97 l 1
 810 -97 l 1
 810 -235 l 1
 90 -235 l 1
 90 -97 l 1
 267 160 l 1
 237 200 220 249 220 300 c 0
 220 351 237 400 267 440 c 1
 90 698 l 1
 90 835 l 1
 810 835 l 1
 810 698 l 1
 264 698 l 1
 386 521 l 1
 407 527 428 530 450 530 c 0
450 170 m 0
 522 170 580 228 580 300 c 0
 580 372 522 430 450 430 c 0
 449 430 449 430 448 430 c 1
 537 300 l 1
 448 170 l 1
 449 170 449 170 450 170 c 0
EndSplineSet
EndChar

StartChar: uni2A0A.sf.disp
Encoding: 67 -1 67
Width: 1188
Flags: HW
HStem: -449 150<277 1098> -53 109<528.354 692.018> 544 109<528.354 692.018> 899 150<277 1098>
VStem: 241 109<201.57 398.43> 838 109<201.982 398.018>
LayerCount: 2
Fore
SplineSet
400 447 m 1
 368 405 350 354 350 300 c 0
 350 246 368 195 400 153 c 1
 501 300 l 1
 400 447 l 1
594 653 m 0
 787 653 947 493 947 300 c 0
 947 107 787 -53 594 -53 c 0
 548 -53 504 -44 463 -27 c 1
 277 -299 l 1
 1098 -299 l 1
 1098 -449 l 1
 90 -449 l 1
 90 -299 l 1
 336 60 l 1
 275 125 241 210 241 300 c 0
 241 390 275 475 336 540 c 1
 90 899 l 1
 90 1049 l 1
 1098 1049 l 1
 1098 899 l 1
 277 899 l 1
 463 627 l 1
 504 644 548 653 594 653 c 0
594 56 m 0
 728 56 838 166 838 300 c 0
 838 434 728 544 594 544 c 0
 571 544 549 540 527 534 c 1
 687 300 l 1
 527 66 l 1
 549 60 571 56 594 56 c 0
EndSplineSet
EndChar

StartChar: integral
Encoding: 68 8747 68
Width: 495
Flags: HW
HStem: -303 111<117 196.185> 795 108<393.947 482.203>
VStem: 233 134<-154.922 768.296>
LayerCount: 2
Fore
SplineSet
512 895 m 1
 483 786 l 1
 466 792 449 795 432 795 c 0
 379 795 367 728 367 667 c 2
 367 -60 l 2
 367 -195 258 -303 124 -303 c 0
 122 -303 119 -303 117 -303 c 1
 102 -192 l 1
 154 -192 l 2
 210 -192 233 -125 233 -60 c 2
 233 667 l 2
 233 795 330 903 456 903 c 0
 458 903 459 903 461 903 c 0
 478 903 495 900 512 895 c 1
EndSplineSet
EndChar

StartChar: integral.disp
Encoding: 69 -1 69
Width: 713
Flags: HW
HStem: -786 129<127 265.119> 1260 126<652.269 812.203>
VStem: 391 154<-503.328 1114.22>
LayerCount: 2
Fore
SplineSet
843 1376 m 1
 809 1250 l 1
 781 1257 753 1260 724 1260 c 0
 603 1260 545 1121 545 983 c 2
 545 -375 l 2
 545 -603 361 -786 134 -786 c 0
 132 -786 129 -786 127 -786 c 1
 109 -657 l 1
 195 -657 l 2
 322 -657 391 -517 391 -375 c 2
 391 983 l 2
 391 1197 549 1381 758 1386 c 0
 787 1386 815 1383 843 1376 c 1
EndSplineSet
EndChar

StartChar: uni222C
Encoding: 70 8748 70
Width: 795
Flags: HW
HStem: -303 111<117 196.185 417 496.185> 795 108<393.947 482.203 693.947 782.203>
VStem: 233 134<-154.922 768.296> 533 134<-154.922 768.296>
LayerCount: 2
Fore
SplineSet
512 895 m 1
 483 786 l 1
 466 792 449 795 432 795 c 0
 379 795 367 728 367 667 c 2
 367 -60 l 2
 367 -195 258 -303 124 -303 c 0
 122 -303 119 -303 117 -303 c 1
 102 -192 l 1
 154 -192 l 2
 210 -192 233 -125 233 -60 c 2
 233 667 l 2
 233 795 330 903 456 903 c 0
 458 903 459 903 461 903 c 0
 478 903 495 900 512 895 c 1
812 895 m 1
 783 786 l 1
 766 792 749 795 732 795 c 0
 679 795 667 728 667 667 c 2
 667 -60 l 2
 667 -195 558 -303 424 -303 c 0
 422 -303 419 -303 417 -303 c 1
 402 -192 l 1
 454 -192 l 2
 510 -192 533 -125 533 -60 c 2
 533 667 l 2
 533 795 630 903 756 903 c 0
 758 903 759 903 761 903 c 0
 778 903 795 900 812 895 c 1
EndSplineSet
EndChar

StartChar: uni222C.disp
Encoding: 71 -1 71
Width: 1253
Flags: HW
HStem: -786 129<127 265.119 667 805.119> 1250 126<759.359 810.889 1299.36 1350.89> 1260 126<652.269 812.203 1192.27 1352.2>
VStem: 391 154<-503.328 1114.22> 931 154<-503.328 1114.22>
LayerCount: 2
Fore
SplineSet
843 1376 m 1xd8
 809 1250 l 1xd8
 781 1257 753 1260 724 1260 c 0
 603 1260 545 1121 545 983 c 2
 545 -375 l 2
 545 -603 361 -786 134 -786 c 0
 132 -786 129 -786 127 -786 c 1
 109 -657 l 1
 195 -657 l 2
 322 -657 391 -517 391 -375 c 2
 391 983 l 2
 391 1197 549 1381 758 1386 c 0xb8
 787 1386 815 1383 843 1376 c 1xd8
1383 1376 m 1
 1349 1250 l 1xd8
 1321 1257 1293 1260 1264 1260 c 0
 1143 1260 1085 1121 1085 983 c 2
 1085 -375 l 2
 1085 -603 901 -786 674 -786 c 0
 672 -786 669 -786 667 -786 c 1
 649 -657 l 1
 735 -657 l 2
 862 -657 931 -517 931 -375 c 2
 931 983 l 2
 931 1197 1089 1381 1298 1386 c 0xb8
 1327 1386 1355 1383 1383 1376 c 1
EndSplineSet
EndChar

StartChar: uni222D
Encoding: 72 8749 72
Width: 1095
Flags: HW
HStem: -303 111<117 196.185 417 496.185 717 796.185> 795 108<393.947 482.203 693.947 782.203 993.947 1082.2>
VStem: 233 134<-154.922 768.296> 533 134<-154.922 768.296> 833 134<-154.922 768.296>
CounterMasks: 1 38
LayerCount: 2
Fore
SplineSet
512 895 m 1
 483 786 l 1
 466 792 449 795 432 795 c 0
 379 795 367 728 367 667 c 2
 367 -60 l 2
 367 -195 258 -303 124 -303 c 0
 122 -303 119 -303 117 -303 c 1
 102 -192 l 1
 154 -192 l 2
 210 -192 233 -125 233 -60 c 2
 233 667 l 2
 233 795 330 903 456 903 c 0
 458 903 459 903 461 903 c 0
 478 903 495 900 512 895 c 1
812 895 m 1
 783 786 l 1
 766 792 749 795 732 795 c 0
 679 795 667 728 667 667 c 2
 667 -60 l 2
 667 -195 558 -303 424 -303 c 0
 422 -303 419 -303 417 -303 c 1
 402 -192 l 1
 454 -192 l 2
 510 -192 533 -125 533 -60 c 2
 533 667 l 2
 533 795 630 903 756 903 c 0
 758 903 759 903 761 903 c 0
 778 903 795 900 812 895 c 1
1112 895 m 1
 1083 786 l 1
 1066 792 1049 795 1032 795 c 0
 979 795 967 728 967 667 c 2
 967 -60 l 2
 967 -195 858 -303 724 -303 c 0
 722 -303 719 -303 717 -303 c 1
 702 -192 l 1
 754 -192 l 2
 810 -192 833 -125 833 -60 c 2
 833 667 l 2
 833 795 930 903 1056 903 c 0
 1058 903 1059 903 1061 903 c 0
 1078 903 1095 900 1112 895 c 1
EndSplineSet
EndChar

StartChar: uni222D.disp
Encoding: 73 -1 73
Width: 1793
Flags: HW
HStem: -786 129<127 265.119 667 805.119 1207 1345.12> 1250 126<759.359 810.889 1299.36 1350.89 1839.36 1890.89> 1260 126<652.269 812.203 1192.27 1352.2 1732.27 1892.2>
VStem: 391 154<-503.328 1114.22> 931 154<-503.328 1114.22> 1471 154<-503.328 1114.22>
CounterMasks: 1 1c
LayerCount: 2
Fore
SplineSet
843 1376 m 1xdc
 809 1250 l 1xdc
 781 1257 753 1260 724 1260 c 0
 603 1260 545 1121 545 983 c 2
 545 -375 l 2
 545 -603 361 -786 134 -786 c 0
 132 -786 129 -786 127 -786 c 1
 109 -657 l 1
 195 -657 l 2
 322 -657 391 -517 391 -375 c 2
 391 983 l 2
 391 1197 549 1381 758 1386 c 0xbc
 787 1386 815 1383 843 1376 c 1xdc
1383 1376 m 1
 1349 1250 l 1xdc
 1321 1257 1293 1260 1264 1260 c 0
 1143 1260 1085 1121 1085 983 c 2
 1085 -375 l 2
 1085 -603 901 -786 674 -786 c 0
 672 -786 669 -786 667 -786 c 1
 649 -657 l 1
 735 -657 l 2
 862 -657 931 -517 931 -375 c 2
 931 983 l 2
 931 1197 1089 1381 1298 1386 c 0xbc
 1327 1386 1355 1383 1383 1376 c 1
1923 1376 m 1
 1889 1250 l 1xdc
 1861 1257 1833 1260 1804 1260 c 0
 1683 1260 1625 1121 1625 983 c 2
 1625 -375 l 2
 1625 -603 1441 -786 1214 -786 c 0
 1212 -786 1209 -786 1207 -786 c 1
 1189 -657 l 1
 1275 -657 l 2
 1402 -657 1471 -517 1471 -375 c 2
 1471 983 l 2
 1471 1197 1629 1381 1838 1386 c 0xbc
 1867 1386 1895 1383 1923 1376 c 1
EndSplineSet
EndChar

StartChar: uni2A0C
Encoding: 74 10764 74
Width: 1395
Flags: HW
HStem: -303 111<117 196.185 417 496.185 717 796.185 1017 1096.18> 795 108<393.947 482.203 693.947 782.203 993.947 1082.2 1293.95 1382.2>
VStem: 233 134<-154.922 768.296> 533 134<-154.922 768.296> 833 134<-154.922 768.296> 1133 134<-154.922 768.296>
LayerCount: 2
Fore
SplineSet
512 895 m 1
 483 786 l 1
 466 792 449 795 432 795 c 0
 379 795 367 728 367 667 c 2
 367 -60 l 2
 367 -195 258 -303 124 -303 c 0
 122 -303 119 -303 117 -303 c 1
 102 -192 l 1
 154 -192 l 2
 210 -192 233 -125 233 -60 c 2
 233 667 l 2
 233 795 330 903 456 903 c 0
 458 903 459 903 461 903 c 0
 478 903 495 900 512 895 c 1
812 895 m 1
 783 786 l 1
 766 792 749 795 732 795 c 0
 679 795 667 728 667 667 c 2
 667 -60 l 2
 667 -195 558 -303 424 -303 c 0
 422 -303 419 -303 417 -303 c 1
 402 -192 l 1
 454 -192 l 2
 510 -192 533 -125 533 -60 c 2
 533 667 l 2
 533 795 630 903 756 903 c 0
 758 903 759 903 761 903 c 0
 778 903 795 900 812 895 c 1
1112 895 m 1
 1083 786 l 1
 1066 792 1049 795 1032 795 c 0
 979 795 967 728 967 667 c 2
 967 -60 l 2
 967 -195 858 -303 724 -303 c 0
 722 -303 719 -303 717 -303 c 1
 702 -192 l 1
 754 -192 l 2
 810 -192 833 -125 833 -60 c 2
 833 667 l 2
 833 795 930 903 1056 903 c 0
 1058 903 1059 903 1061 903 c 0
 1078 903 1095 900 1112 895 c 1
1412 895 m 1
 1383 786 l 1
 1366 792 1349 795 1332 795 c 0
 1279 795 1267 728 1267 667 c 2
 1267 -60 l 2
 1267 -195 1158 -303 1024 -303 c 0
 1022 -303 1019 -303 1017 -303 c 1
 1002 -192 l 1
 1054 -192 l 2
 1110 -192 1133 -125 1133 -60 c 2
 1133 667 l 2
 1133 795 1230 903 1356 903 c 0
 1358 903 1359 903 1361 903 c 0
 1378 903 1395 900 1412 895 c 1
EndSplineSet
EndChar

StartChar: uni2A0C.disp
Encoding: 75 -1 75
Width: 2333
Flags: HW
HStem: -786 129<127 265.119 667 805.119 1207 1345.12 1747 1885.12> 1250 126<759.359 810.889 1299.36 1350.89 1839.36 1890.89 2379.36 2430.89> 1260 126<652.269 812.203 1192.27 1352.2 1732.27 1892.2 2272.27 2432.2>
VStem: 391 154<-503.328 1114.22> 931 154<-503.328 1114.22> 1471 154<-503.328 1114.22> 2011 154<-503.328 1114.22>
LayerCount: 2
Fore
SplineSet
843 1376 m 1xde
 809 1250 l 1xde
 781 1257 753 1260 724 1260 c 0
 603 1260 545 1121 545 983 c 2
 545 -375 l 2
 545 -603 361 -786 134 -786 c 0
 132 -786 129 -786 127 -786 c 1
 109 -657 l 1
 195 -657 l 2
 322 -657 391 -517 391 -375 c 2
 391 983 l 2
 391 1197 549 1381 758 1386 c 0xbe
 787 1386 815 1383 843 1376 c 1xde
1383 1376 m 1
 1349 1250 l 1xde
 1321 1257 1293 1260 1264 1260 c 0
 1143 1260 1085 1121 1085 983 c 2
 1085 -375 l 2
 1085 -603 901 -786 674 -786 c 0
 672 -786 669 -786 667 -786 c 1
 649 -657 l 1
 735 -657 l 2
 862 -657 931 -517 931 -375 c 2
 931 983 l 2
 931 1197 1089 1381 1298 1386 c 0xbe
 1327 1386 1355 1383 1383 1376 c 1
1923 1376 m 1
 1889 1250 l 1xde
 1861 1257 1833 1260 1804 1260 c 0
 1683 1260 1625 1121 1625 983 c 2
 1625 -375 l 2
 1625 -603 1441 -786 1214 -786 c 0
 1212 -786 1209 -786 1207 -786 c 1
 1189 -657 l 1
 1275 -657 l 2
 1402 -657 1471 -517 1471 -375 c 2
 1471 983 l 2
 1471 1197 1629 1381 1838 1386 c 0xbe
 1867 1386 1895 1383 1923 1376 c 1
2463 1376 m 1
 2429 1250 l 1xde
 2401 1257 2373 1260 2344 1260 c 0
 2223 1260 2165 1121 2165 983 c 2
 2165 -375 l 2
 2165 -603 1981 -786 1754 -786 c 0
 1752 -786 1749 -786 1747 -786 c 1
 1729 -657 l 1
 1815 -657 l 2
 1942 -657 2011 -517 2011 -375 c 2
 2011 983 l 2
 2011 1197 2169 1381 2378 1386 c 0xbe
 2407 1386 2435 1383 2463 1376 c 1
EndSplineSet
EndChar

StartChar: uni222B22EF222B
Encoding: 76 -1 76
Width: 2015
Flags: HW
HStem: -303 111<117 196.185 1487 1566.18> 198 212<600.802 684.244 943.05 1026.95 1285.8 1369.24> 795 108<393.947 482.203 1763.95 1852.2>
VStem: 233 134<-154.922 768.296> 537 212<261.802 345.244> 879 212<261.802 345.244> 1222 212<261.802 345.244> 1603 134<-154.922 768.296>
LayerCount: 2
Fore
SplineSet
512 895 m 1
 483 786 l 1
 466 792 449 795 432 795 c 0
 379 795 367 728 367 667 c 2
 367 -60 l 2
 367 -195 258 -303 124 -303 c 0
 122 -303 119 -303 117 -303 c 1
 102 -192 l 1
 154 -192 l 2
 210 -192 233 -125 233 -60 c 2
 233 667 l 2
 233 795 330 903 456 903 c 0
 458 903 459 903 461 903 c 0
 478 903 495 900 512 895 c 1
1882 895 m 1
 1853 786 l 1
 1836 792 1819 795 1802 795 c 0
 1749 795 1737 728 1737 667 c 2
 1737 -60 l 2
 1737 -195 1628 -303 1494 -303 c 0
 1492 -303 1489 -303 1487 -303 c 1
 1472 -192 l 1
 1524 -192 l 2
 1580 -192 1603 -125 1603 -60 c 2
 1603 667 l 2
 1603 795 1700 903 1826 903 c 0
 1828 903 1829 903 1831 903 c 0
 1848 903 1865 900 1882 895 c 1
749 304 m 0
 749 282 725 259 706 240 c 0
 687 221 664 198 643 198 c 0
 621 198 598 221 579 240 c 0
 560 259 537 282 537 304 c 0
 537 325 560 348 579 367 c 0
 598 386 621 410 643 410 c 0
 664 410 687 386 706 367 c 0
 725 348 749 325 749 304 c 0
1091 304 m 0
 1091 282 1068 259 1049 240 c 0
 1030 221 1006 198 985 198 c 0
 964 198 940 221 921 240 c 0
 903 259 879 282 879 304 c 0
 879 325 903 348 921 367 c 0
 940 386 964 410 985 410 c 0
 1006 410 1030 386 1049 367 c 0
 1068 348 1091 325 1091 304 c 0
1434 304 m 0
 1434 282 1410 259 1391 240 c 0
 1372 221 1349 198 1328 198 c 0
 1306 198 1283 221 1264 240 c 0
 1245 259 1222 282 1222 304 c 0
 1222 325 1245 348 1264 367 c 0
 1283 386 1306 410 1328 410 c 0
 1349 410 1372 386 1391 367 c 0
 1410 348 1434 325 1434 304 c 0
EndSplineSet
EndChar

StartChar: uni222B22EF222B.disp
Encoding: 77 -1 77
Width: 2473
Flags: HW
HStem: -786 129<127 265.119 1617 1755.12> 198 212<798.802 882.244 1171.05 1254.95 1543.8 1627.24> 1250 126<759.359 810.889 2249.36 2300.89> 1260 126<652.269 812.203 2142.27 2302.2>
VStem: 391 154<-503.328 1114.22> 735 212<262.05 345.95> 1107 212<262.05 345.95> 1480 212<262.05 345.95> 1881 154<-503.328 1114.22>
LayerCount: 2
Fore
SplineSet
843 1376 m 1xef80
 809 1250 l 1xef80
 781 1257 753 1260 724 1260 c 0
 603 1260 545 1121 545 983 c 2
 545 -375 l 2
 545 -603 361 -786 134 -786 c 0
 132 -786 129 -786 127 -786 c 1
 109 -657 l 1
 195 -657 l 2
 322 -657 391 -517 391 -375 c 2
 391 983 l 2
 391 1197 549 1381 758 1386 c 0xdf80
 787 1386 815 1383 843 1376 c 1xef80
2333 1376 m 1
 2299 1250 l 1xef80
 2271 1257 2243 1260 2214 1260 c 0
 2093 1260 2035 1121 2035 983 c 2
 2035 -375 l 2
 2035 -603 1851 -786 1624 -786 c 0
 1622 -786 1619 -786 1617 -786 c 1
 1599 -657 l 1
 1685 -657 l 2
 1812 -657 1881 -517 1881 -375 c 2
 1881 983 l 2
 1881 1197 2039 1381 2248 1386 c 0xdf80
 2277 1386 2305 1383 2333 1376 c 1
947 304 m 0
 947 283 923 259 904 240 c 0
 885 222 862 198 841 198 c 0
 819 198 796 222 777 240 c 0
 758 259 735 283 735 304 c 0
 735 325 758 349 777 368 c 0
 796 387 819 410 841 410 c 0
 862 410 885 387 904 368 c 0
 923 349 947 325 947 304 c 0
1213 198 m 0
 1183 198 1107 274 1107 304 c 0
 1107 325 1131 349 1149 368 c 0
 1168 387 1192 410 1213 410 c 0
 1234 410 1258 387 1277 368 c 0
 1296 349 1319 325 1319 304 c 0
 1319 283 1296 259 1277 240 c 0
 1258 222 1234 198 1213 198 c 0
1692 304 m 0
 1692 283 1668 259 1649 240 c 0
 1630 222 1607 198 1586 198 c 0
 1564 198 1541 222 1522 240 c 0
 1503 259 1480 283 1480 304 c 0
 1480 325 1503 349 1522 368 c 0
 1541 387 1564 410 1586 410 c 0
 1607 410 1630 387 1649 368 c 0
 1668 349 1692 325 1692 304 c 0
EndSplineSet
EndChar

StartChar: uni2231
Encoding: 78 8753 78
Width: 720
Flags: HW
HStem: -303 111<177 256.185> 795 108<453.947 542.203>
VStem: 293 134<-154.922 302 401.007 768.296>
LayerCount: 2
Fore
SplineSet
645 206 m 1
 454 189 l 1
 447 272 l 1
 483 275 l 1
 465 286 447 295 427 302 c 1
 427 -60 l 2
 427 -195 318 -303 184 -303 c 0
 182 -303 179 -303 177 -303 c 1
 162 -192 l 1
 214 -192 l 2
 270 -192 293 -125 293 -60 c 2
 293 302 l 1
 241 284 195 248 155 208 c 1
 85 279 l 1
 144 338 214 387 293 406 c 1
 293 667 l 2
 293 795 390 903 516 903 c 0
 518 903 519 903 521 903 c 0
 538 903 555 900 572 895 c 1
 543 786 l 1
 526 792 509 795 492 795 c 0
 439 795 427 728 427 667 c 2
 427 406 l 1
 470 396 511 376 549 351 c 1
 545 389 l 1
 628 397 l 1
 645 206 l 1
EndSplineSet
EndChar

StartChar: uni2231.disp
Encoding: 79 -1 79
Width: 929
Flags: HW
HStem: -786 129<235 373.119> 346 118<429.487 499 653 722.562> 1260 126<760.269 920.203>
VStem: 499 154<-503.328 346 460.418 1114.22>
LayerCount: 2
Fore
SplineSet
1060 152 m 1
 743 124 l 1
 735 221 l 1
 879 233 l 1
 811 287 736 329 653 346 c 1
 653 -375 l 2
 653 -603 469 -786 242 -786 c 0
 240 -786 237 -786 235 -786 c 1
 217 -657 l 1
 303 -657 l 2
 430 -657 499 -517 499 -375 c 2
 499 346 l 1
 379 322 274 244 185 155 c 1
 103 237 l 1
 214 348 348 440 499 464 c 1
 499 983 l 2
 499 1197 657 1381 866 1386 c 0
 895 1386 923 1383 951 1376 c 1
 917 1250 l 1
 889 1257 861 1260 832 1260 c 0
 711 1260 653 1121 653 983 c 2
 653 464 l 1
 761 447 860 396 948 327 c 1
 936 461 l 1
 1033 469 l 1
 1060 152 l 1
EndSplineSet
EndChar

StartChar: uni2A11
Encoding: 80 10769 80
Width: 720
Flags: HW
HStem: -303 111<177 256.185> 202 103<246.008 293> 795 108<453.947 542.203>
VStem: 293 134<-154.922 207.335 305 768.296>
LayerCount: 2
Fore
SplineSet
645 401 m 1
 628 210 l 1
 545 218 l 1
 549 256 l 1
 511 231 470 212 427 202 c 1
 427 -60 l 2
 427 -195 318 -303 184 -303 c 0
 182 -303 179 -303 177 -303 c 1
 162 -192 l 1
 214 -192 l 2
 270 -192 293 -125 293 -60 c 2
 293 202 l 1
 214 220 144 269 85 328 c 1
 155 399 l 1
 195 359 241 322 293 305 c 1
 293 667 l 2
 293 795 390 903 516 903 c 0
 518 903 519 903 521 903 c 0
 538 903 555 900 572 895 c 1
 543 786 l 1
 526 792 509 795 492 795 c 0
 439 795 427 728 427 667 c 2
 427 305 l 1
 446 312 465 321 483 332 c 1
 447 335 l 1
 454 418 l 1
 645 401 l 1
EndSplineSet
EndChar

StartChar: uni2A11.disp
Encoding: 81 -1 81
Width: 929
Flags: HW
HStem: -786 129<235 373.119> 144 118<429.487 499 653 722.562> 1260 126<760.269 920.203>
VStem: 499 154<-503.328 147.593 262 1114.22>
LayerCount: 2
Fore
SplineSet
1060 456 m 1
 1033 139 l 1
 936 147 l 1
 948 282 l 1
 860 213 761 161 653 144 c 1
 653 -375 l 2
 653 -603 469 -786 242 -786 c 0
 240 -786 237 -786 235 -786 c 1
 217 -657 l 1
 303 -657 l 2
 430 -657 499 -517 499 -375 c 2
 499 144 l 1
 348 168 214 260 103 371 c 1
 185 453 l 1
 274 364 379 286 499 262 c 1
 499 983 l 2
 499 1197 657 1381 866 1386 c 0
 895 1386 923 1383 951 1376 c 1
 917 1250 l 1
 889 1257 861 1260 832 1260 c 0
 711 1260 653 1121 653 983 c 2
 653 262 l 1
 736 279 812 321 880 375 c 1
 735 388 l 1
 743 484 l 1
 1060 456 l 1
EndSplineSet
EndChar

StartChar: uni2A0D
Encoding: 82 10765 82
Width: 600
Flags: HW
HStem: -303 111<117 196.185> 254 100<100 233 367 500> 795 108<393.947 482.203>
VStem: 233 134<-154.922 254 354 768.296>
LayerCount: 2
Fore
SplineSet
100 254 m 1
 100 354 l 1
 233 354 l 1
 233 667 l 2
 233 795 330 903 456 903 c 0
 458 903 459 903 461 903 c 0
 478 903 495 900 512 895 c 1
 483 786 l 1
 466 792 449 795 432 795 c 0
 379 795 367 728 367 667 c 2
 367 354 l 1
 500 354 l 1
 500 254 l 1
 367 254 l 1
 367 -60 l 2
 367 -195 258 -303 124 -303 c 0
 122 -303 119 -303 117 -303 c 1
 102 -192 l 1
 154 -192 l 2
 210 -192 233 -125 233 -60 c 2
 233 254 l 1
 100 254 l 1
EndSplineSet
EndChar

StartChar: uni2A0D.disp
Encoding: 83 -1 83
Width: 713
Flags: HW
HStem: -786 129<127 265.119> 246 116<140 391 545 796> 1260 126<652.269 812.203>
VStem: 391 154<-503.328 246 362 1114.22>
LayerCount: 2
Fore
SplineSet
140 246 m 1
 140 362 l 1
 391 362 l 1
 391 983 l 2
 391 1197 549 1381 758 1386 c 0
 787 1386 815 1383 843 1376 c 1
 809 1250 l 1
 781 1257 753 1260 724 1260 c 0
 603 1260 545 1121 545 983 c 2
 545 362 l 1
 796 362 l 1
 796 246 l 1
 545 246 l 1
 545 -375 l 2
 545 -603 361 -786 134 -786 c 0
 132 -786 129 -786 127 -786 c 1
 109 -657 l 1
 195 -657 l 2
 322 -657 391 -517 391 -375 c 2
 391 246 l 1
 140 246 l 1
EndSplineSet
EndChar

StartChar: uni2A0E
Encoding: 84 10766 84
Width: 600
Flags: HW
HStem: -303 111<117 196.185> 154 100<100 233 367 500> 353 100<100 233 367 500> 795 108<393.947 482.203>
VStem: 233 134<-154.922 154 254 353 453 768.296>
LayerCount: 2
Fore
SplineSet
100 353 m 1
 100 453 l 1
 233 453 l 1
 233 667 l 2
 233 795 330 903 456 903 c 0
 458 903 459 903 461 903 c 0
 478 903 495 900 512 895 c 1
 483 786 l 1
 466 792 449 795 432 795 c 0
 379 795 367 728 367 667 c 2
 367 453 l 1
 500 453 l 1
 500 353 l 1
 367 353 l 1
 367 254 l 1
 500 254 l 1
 500 154 l 1
 367 154 l 1
 367 -60 l 2
 367 -195 258 -303 124 -303 c 0
 122 -303 119 -303 117 -303 c 1
 102 -192 l 1
 154 -192 l 2
 210 -192 233 -125 233 -60 c 2
 233 154 l 1
 100 154 l 1
 100 254 l 1
 233 254 l 1
 233 353 l 1
 100 353 l 1
EndSplineSet
EndChar

StartChar: uni2A0E.disp
Encoding: 85 -1 85
Width: 713
Flags: HW
HStem: -786 129<127 265.119> 147 116<140 391 545 796> 346 116<140 391 545 796> 1260 126<652.269 812.203>
VStem: 391 154<-503.328 147 263 346 462 1114.22>
LayerCount: 2
Fore
SplineSet
140 346 m 1
 140 462 l 1
 391 462 l 1
 391 983 l 2
 391 1197 549 1381 758 1386 c 0
 787 1386 815 1383 843 1376 c 1
 809 1250 l 1
 781 1257 753 1260 724 1260 c 0
 603 1260 545 1121 545 983 c 2
 545 462 l 1
 796 462 l 1
 796 346 l 1
 545 346 l 1
 545 263 l 1
 796 263 l 1
 796 147 l 1
 545 147 l 1
 545 -375 l 2
 545 -603 361 -786 134 -786 c 0
 132 -786 129 -786 127 -786 c 1
 109 -657 l 1
 195 -657 l 2
 322 -657 391 -517 391 -375 c 2
 391 147 l 1
 140 147 l 1
 140 263 l 1
 391 263 l 1
 391 346 l 1
 140 346 l 1
EndSplineSet
EndChar

StartChar: uni2A0F
Encoding: 86 10767 86
Width: 495
Flags: HW
HStem: -303 111<117 196.185> 795 108<393.947 482.203>
VStem: 233 134<-154.922 195 412 768.296>
LayerCount: 2
Fore
SplineSet
116 113 m 1
 58 195 l 1
 233 318 l 1
 233 667 l 2
 233 795 330 903 456 903 c 0
 458 903 459 903 461 903 c 0
 478 903 495 900 512 895 c 1
 483 786 l 1
 466 792 449 795 432 795 c 0
 379 795 367 728 367 667 c 2
 367 412 l 1
 484 494 l 1
 542 412 l 1
 367 289 l 1
 367 -60 l 2
 367 -195 258 -303 124 -303 c 0
 122 -303 119 -303 117 -303 c 1
 102 -192 l 1
 154 -192 l 2
 210 -192 233 -125 233 -60 c 2
 233 195 l 1
 116 113 l 1
EndSplineSet
EndChar

StartChar: uni2A0F.disp
Encoding: 87 -1 87
Width: 713
Flags: HW
HStem: -786 129<127 265.119> 1260 126<652.269 812.203>
VStem: 391 154<-503.328 180 429 1114.22>
LayerCount: 2
Fore
SplineSet
144 7 m 1
 78 102 l 1
 391 321 l 1
 391 983 l 2
 391 1197 549 1381 758 1386 c 0
 787 1386 815 1383 843 1376 c 1
 809 1250 l 1
 781 1257 753 1260 724 1260 c 0
 603 1260 545 1121 545 983 c 2
 545 429 l 1
 792 602 l 1
 858 507 l 1
 545 288 l 1
 545 -375 l 2
 545 -603 361 -786 134 -786 c 0
 132 -786 129 -786 127 -786 c 1
 109 -657 l 1
 195 -657 l 2
 322 -657 391 -517 391 -375 c 2
 391 180 l 1
 144 7 l 1
EndSplineSet
EndChar

StartChar: uni222E
Encoding: 88 8750 88
Width: 660
Flags: HW
HStem: -303 111<147 226.185> 795 108<423.947 512.203>
VStem: 90 100<226.802 373.521> 263 134<-154.922 75.1868 177 423 524.813 768.296> 470 100<226.479 373.198>
CounterMasks: 1 38
LayerCount: 2
Fore
SplineSet
263 423 m 1
 250 416 190 379 190 300 c 0
 190 286 194 215 263 177 c 1
 263 423 l 1
397 177 m 1
 410 184 470 221 470 300 c 0
 470 314 466 385 397 423 c 1
 397 177 l 1
90 300 m 0
 90 408 161 502 263 531 c 1
 263 667 l 2
 263 795 360 903 486 903 c 0
 488 903 489 903 491 903 c 0
 508 903 525 900 542 895 c 1
 513 786 l 1
 496 792 479 795 462 795 c 0
 409 795 397 728 397 667 c 2
 397 531 l 1
 499 502 570 408 570 300 c 0
 570 192 499 98 397 69 c 1
 397 -60 l 2
 397 -195 288 -303 154 -303 c 0
 152 -303 149 -303 147 -303 c 1
 132 -192 l 1
 184 -192 l 2
 240 -192 263 -125 263 -60 c 2
 263 69 l 1
 161 98 90 192 90 300 c 0
EndSplineSet
EndChar

StartChar: uni222E.disp
Encoding: 89 -1 89
Width: 821
Flags: HW
HStem: -786 129<181 319.119> -125 118<389.565 445 599 654.435> 607 118<389.565 445 599 654.435> 1260 126<706.269 866.203>
VStem: 90 116<185.292 414.708> 445 154<-503.328 -121.121 -7 607 721.121 1114.22> 838 116<185.292 414.708>
CounterMasks: 1 0e
LayerCount: 2
Fore
SplineSet
445 607 m 1
 301 571 206 443 206 300 c 0
 206 157 301 29 445 -7 c 1
 445 607 l 1
599 -7 m 1
 743 29 838 157 838 300 c 0
 838 443 743 571 599 607 c 1
 599 -7 l 1
90 300 m 0
 90 510 243 688 445 725 c 1
 445 983 l 2
 445 1197 603 1381 812 1386 c 0
 841 1386 869 1383 897 1376 c 1
 863 1250 l 1
 835 1257 807 1260 778 1260 c 0
 657 1260 599 1121 599 983 c 2
 599 725 l 1
 801 688 954 510 954 300 c 0
 954 90 801 -88 599 -125 c 1
 599 -375 l 2
 599 -603 415 -786 188 -786 c 0
 186 -786 183 -786 181 -786 c 1
 163 -657 l 1
 249 -657 l 2
 376 -657 445 -517 445 -375 c 2
 445 -125 l 1
 243 -88 90 90 90 300 c 0
EndSplineSet
EndChar

StartChar: uni222F
Encoding: 90 8751 90
Width: 960
Flags: HW
HStem: -303 111<147 226.185 447 526.185> 60 100<397 563> 440 100<397 563> 795 108<423.947 512.203 723.947 812.203>
VStem: 90 100<236.41 363.844> 263 134<-154.922 62 195 405 538 768.296> 563 134<-154.922 62 195 405 538 768.296> 770 100<237.009 362.737>
LayerCount: 2
Fore
SplineSet
263 195 m 1
 263 405 l 1
 221 385 190 346 190 300 c 0
 190 254 221 215 263 195 c 1
563 163 m 1
 563 437 l 1
 535 439 508 440 480 440 c 0
 452 440 425 439 397 437 c 1
 397 163 l 1
 425 161 452 160 480 160 c 0
 508 160 535 161 563 163 c 1
697 195 m 1
 705 199 770 231 770 300 c 0
 770 351 732 389 697 405 c 1
 697 195 l 1
90 300 m 0
 90 362 114 466 263 514 c 1
 263 667 l 2
 263 795 360 903 486 903 c 0
 488 903 489 903 491 903 c 0
 508 903 525 900 542 895 c 1
 513 786 l 1
 496 792 479 795 462 795 c 0
 409 795 397 728 397 667 c 2
 397 538 l 1
 425 540 452 540 480 540 c 0
 508 540 535 540 563 538 c 1
 563 667 l 2
 563 795 660 903 786 903 c 0
 788 903 789 903 791 903 c 0
 808 903 825 900 842 895 c 1
 813 786 l 1
 796 792 779 795 762 795 c 0
 709 795 697 728 697 667 c 2
 697 514 l 1
 723 506 749 495 773 480 c 0
 835 442 870 373 870 300 c 0
 870 231 842 132 697 86 c 1
 697 -60 l 2
 697 -195 588 -303 454 -303 c 0
 452 -303 449 -303 447 -303 c 1
 432 -192 l 1
 484 -192 l 2
 540 -192 563 -125 563 -60 c 2
 563 62 l 1
 535 60 508 60 480 60 c 0
 452 60 425 60 397 62 c 1
 397 -60 l 2
 397 -195 288 -303 154 -303 c 0
 152 -303 149 -303 147 -303 c 1
 132 -192 l 1
 184 -192 l 2
 240 -192 263 -125 263 -60 c 2
 263 86 l 1
 237 94 212 105 188 120 c 0
 126 158 90 227 90 300 c 0
EndSplineSet
EndChar

StartChar: uni222F.disp
Encoding: 91 -1 91
Width: 1361
Flags: HW
HStem: -786 129<181 319.119 721 859.119> -132 116<602.001 981.999> 616 116<602.001 981.999> 1250 126<813.359 864.889 1353.36 1404.89> 1260 126<706.269 866.203 1246.27 1406.2>
VStem: 90 116<197.792 402.208> 445 154<-503.328 -124 24 576 724 1114.22> 985 154<-503.328 -124 24 576 724 1114.22> 1378 116<197.792 402.208>
LayerCount: 2
Fore
SplineSet
445 24 m 1xe780
 445 576 l 1
 413 566 382 553 352 537 c 0
 264 490 206 400 206 300 c 0
 206 200 264 110 352 63 c 0
 382 47 413 34 445 24 c 1xe780
985 -8 m 1
 985 608 l 1
 921 615 856 616 792 616 c 0
 728 616 663 615 599 608 c 1
 599 -8 l 1
 663 -15 728 -16 792 -16 c 0
 856 -16 921 -15 985 -8 c 1
1378 300 m 0
 1378 400 1320 490 1232 537 c 0
 1202 553 1171 566 1139 576 c 1
 1139 24 l 1
 1171 34 1202 47 1232 63 c 0
 1320 110 1378 200 1378 300 c 0
1437 1376 m 1xf780
 1403 1250 l 1xf780
 1375 1257 1347 1260 1318 1260 c 0
 1197 1260 1139 1121 1139 983 c 2
 1139 699 l 1
 1202 683 1263 659 1319 624 c 0
 1430 555 1494 431 1494 300 c 0
 1494 169 1430 45 1319 -24 c 0
 1263 -59 1202 -83 1139 -99 c 1
 1139 -375 l 2
 1139 -603 955 -786 728 -786 c 0
 726 -786 723 -786 721 -786 c 1
 703 -657 l 1
 789 -657 l 2
 916 -657 985 -517 985 -375 c 2
 985 -124 l 1
 921 -130 856 -132 792 -132 c 0
 728 -132 663 -130 599 -124 c 1
 599 -375 l 2
 599 -603 415 -786 188 -786 c 0
 186 -786 183 -786 181 -786 c 1
 163 -657 l 1
 249 -657 l 2
 376 -657 445 -517 445 -375 c 2
 445 -99 l 1
 382 -83 322 -59 266 -24 c 0
 154 45 90 169 90 300 c 0
 90 431 154 555 266 624 c 0
 322 659 382 683 445 699 c 1
 445 983 l 2
 445 1197 603 1381 812 1386 c 0xef80
 841 1386 869 1383 897 1376 c 1
 863 1250 l 1xf780
 835 1257 807 1260 778 1260 c 0
 657 1260 599 1121 599 983 c 2
 599 724 l 1
 663 730 728 732 792 732 c 0
 856 732 921 730 985 724 c 1
 985 983 l 2
 985 1197 1143 1381 1352 1386 c 0xef80
 1381 1386 1409 1383 1437 1376 c 1xf780
EndSplineSet
EndChar

StartChar: uni2230
Encoding: 92 8752 92
Width: 1260
Flags: HW
HStem: -303 111<147 226.185 447 526.185 747 826.185> 72 100<397 560.376 699.624 863> 428 100<397 560.376 699.624 863> 795 108<423.947 512.203 723.947 812.203 1023.95 1112.2>
VStem: 90 100<247.78 353.698> 263 134<-154.922 72 210 390 528 768.296> 563 134<-154.922 61 160 440 539 768.296> 863 134<-154.922 72 210 390 528 768.296> 1070 100<246.302 352.22>
LayerCount: 2
Fore
SplineSet
263 210 m 1
 263 390 l 1
 223 371 190 342 190 300 c 0
 190 258 223 229 263 210 c 1
397 172 m 1
 452 163 507 161 563 160 c 1
 563 440 l 1
 507 439 452 437 397 428 c 1
 397 172 l 1
697 160 m 1
 753 161 808 163 863 172 c 1
 863 428 l 1
 808 437 753 439 697 440 c 1
 697 160 l 1
997 210 m 1
 1037 229 1070 258 1070 300 c 0
 1070 342 1037 371 997 390 c 1
 997 210 l 1
90 300 m 0
 90 351 113 441 263 495 c 1
 263 667 l 2
 263 795 360 903 486 903 c 0
 488 903 489 903 491 903 c 0
 508 903 525 900 542 895 c 1
 513 786 l 1
 496 792 479 795 462 795 c 0
 409 795 397 728 397 667 c 2
 397 528 l 1
 452 536 507 538 563 539 c 1
 563 667 l 2
 563 795 660 903 786 903 c 0
 788 903 789 903 791 903 c 0
 808 903 825 900 842 895 c 1
 813 786 l 1
 796 792 779 795 762 795 c 0
 709 795 697 728 697 667 c 2
 697 539 l 1
 753 538 808 536 863 528 c 1
 863 667 l 2
 863 795 960 903 1086 903 c 0
 1088 903 1089 903 1091 903 c 0
 1108 903 1125 900 1142 895 c 1
 1113 786 l 1
 1096 792 1079 795 1062 795 c 0
 1009 795 997 728 997 667 c 2
 997 495 l 1
 1010 490 1022 486 1035 480 c 0
 1110 447 1170 381 1170 300 c 0
 1170 249 1147 159 997 105 c 1
 997 -60 l 2
 997 -195 888 -303 754 -303 c 0
 752 -303 749 -303 747 -303 c 1
 732 -192 l 1
 784 -192 l 2
 840 -192 863 -125 863 -60 c 2
 863 72 l 1
 808 64 753 62 697 61 c 1
 697 -60 l 2
 697 -195 588 -303 454 -303 c 0
 452 -303 449 -303 447 -303 c 1
 432 -192 l 1
 484 -192 l 2
 540 -192 563 -125 563 -60 c 2
 563 61 l 1
 507 62 452 64 397 72 c 1
 397 -60 l 2
 397 -195 288 -303 154 -303 c 0
 152 -303 149 -303 147 -303 c 1
 132 -192 l 1
 184 -192 l 2
 240 -192 263 -125 263 -60 c 2
 263 105 l 1
 250 110 238 114 225 120 c 0
 150 153 90 219 90 300 c 0
EndSplineSet
EndChar

StartChar: uni2230.disp
Encoding: 93 -1 93
Width: 1901
Flags: HW
HStem: -786 129<181 319.119 721 859.119 1261 1399.12> -103 117<599 766.337 1357.66 1525> 586 117<599 766.337 1357.66 1525> 1250 126<813.359 864.889 1353.36 1404.89 1893.36 1944.89> 1260 126<706.269 866.203 1246.27 1406.2 1786.27 1946.2>
VStem: 90 116<213.183 386.704> 445 154<-503.328 -103 54 546 703 1114.22> 985 154<-503.328 -132 -16 616 732 1114.22> 1525 154<-503.328 -103 54 546 703 1114.22> 1918 116<213.296 386.817>
LayerCount: 2
Fore
SplineSet
445 546 m 1xe7c0
 349 513 206 441 206 300 c 0
 206 234 240 124 445 54 c 1
 445 546 l 1xe7c0
599 14 m 1
 725 -10 855 -15 985 -16 c 1
 985 616 l 1
 855 615 725 610 599 586 c 1
 599 14 l 1
1139 -16 m 1
 1269 -15 1399 -10 1525 14 c 1
 1525 586 l 1
 1399 610 1269 615 1139 616 c 1
 1139 -16 l 1
1679 54 m 1
 1775 87 1918 159 1918 300 c 0
 1918 366 1884 476 1679 546 c 1
 1679 54 l 1
1977 1376 m 1xf7c0
 1943 1250 l 1xf7c0
 1915 1257 1887 1260 1858 1260 c 0
 1737 1260 1679 1121 1679 983 c 2
 1679 666 l 1
 1717 654 1754 640 1791 624 c 0
 1927 564 2034 446 2034 300 c 0
 2034 154 1927 36 1791 -24 c 0
 1754 -40 1717 -54 1679 -66 c 1
 1679 -375 l 2
 1679 -603 1495 -786 1268 -786 c 0
 1266 -786 1263 -786 1261 -786 c 1
 1243 -657 l 1
 1329 -657 l 2
 1456 -657 1525 -517 1525 -375 c 2
 1525 -103 l 1
 1399 -125 1269 -131 1139 -132 c 1
 1139 -375 l 2
 1139 -603 955 -786 728 -786 c 0
 726 -786 723 -786 721 -786 c 1
 703 -657 l 1
 789 -657 l 2
 916 -657 985 -517 985 -375 c 2
 985 -132 l 1
 855 -131 725 -125 599 -103 c 1
 599 -375 l 2
 599 -603 415 -786 188 -786 c 0
 186 -786 183 -786 181 -786 c 1
 163 -657 l 1
 249 -657 l 2
 376 -657 445 -517 445 -375 c 2
 445 -66 l 1
 407 -54 370 -40 333 -24 c 0
 198 36 90 154 90 300 c 0
 90 446 198 564 333 624 c 0
 370 640 407 654 445 666 c 1
 445 983 l 2
 445 1197 603 1381 812 1386 c 0xefc0
 841 1386 869 1383 897 1376 c 1
 863 1250 l 1xf7c0
 835 1257 807 1260 778 1260 c 0
 657 1260 599 1121 599 983 c 2
 599 703 l 1
 725 725 855 731 985 732 c 1
 985 983 l 2
 985 1197 1143 1381 1352 1386 c 0xefc0
 1381 1386 1409 1383 1437 1376 c 1
 1403 1250 l 1xf7c0
 1375 1257 1347 1260 1318 1260 c 0
 1197 1260 1139 1121 1139 983 c 2
 1139 732 l 1
 1269 731 1399 725 1525 703 c 1
 1525 983 l 2
 1525 1197 1683 1381 1892 1386 c 0xefc0
 1921 1386 1949 1383 1977 1376 c 1xf7c0
EndSplineSet
EndChar

StartChar: uni2233
Encoding: 94 8755 94
Width: 720
Flags: HW
HStem: -303 111<147 226.185> 795 108<423.947 512.203>
VStem: 90 100<229.046 377.784> 263 134<-154.922 79.1208 181 216 281 426 527.153 768.296>
LayerCount: 2
Fore
SplineSet
263 426 m 1
 251 420 190 384 190 303 c 0
 190 286 194 219 263 181 c 1
 263 426 l 1
424 199 m 1
 411 192 l 1
 397 216 l 1
 397 181 l 1
 407 186 416 192 424 199 c 1
90 304 m 0
 90 424 174 508 263 534 c 1
 263 667 l 2
 263 795 360 903 486 903 c 0
 488 903 489 903 491 903 c 0
 508 903 525 900 542 895 c 1
 513 786 l 1
 496 792 479 795 462 795 c 0
 409 795 397 728 397 667 c 2
 397 534 l 1
 429 525 507 493 548 405 c 1
 457 363 l 1
 444 390 423 412 397 426 c 1
 397 281 l 1
 535 360 l 1
 567 304 l 1
 570 304 l 1
 570 303 570 301 570 300 c 2
 631 194 l 1
 559 153 l 1
 540 186 l 1
 524 158 481 98 397 73 c 1
 397 -60 l 2
 397 -195 288 -303 154 -303 c 0
 152 -303 149 -303 147 -303 c 1
 132 -192 l 1
 184 -192 l 2
 240 -192 263 -125 263 -60 c 2
 263 73 l 1
 165 102 90 190 90 304 c 0
EndSplineSet
EndChar

StartChar: uni2233.disp
Encoding: 95 -1 95
Width: 929
Flags: HW
HStem: -786 129<181 319.119> -121 118<389.334 445 599 653.986> 611 118<389.103 445 599 659.469> 1260 126<706.269 866.203>
VStem: 90 116<188.701 418.182> 445 154<-503.328 -117.212 -3 611 725.212 1114.22>
LayerCount: 2
Fore
SplineSet
445 611 m 1
 301 576 206 444 206 303 c 0
 206 257 216 212 235 170 c 0
 254 131 313 31 445 -3 c 1
 445 611 l 1
90 304 m 0
 90 515 241 693 445 729 c 1
 445 983 l 2
 445 1197 603 1381 812 1386 c 0
 841 1386 869 1383 897 1376 c 1
 863 1250 l 1
 835 1257 807 1260 778 1260 c 0
 657 1260 599 1121 599 983 c 2
 599 729 l 1
 655 719 826 674 914 487 c 1
 809 438 l 1
 787 484 728 578 599 611 c 1
 599 -3 l 1
 642 8 771 54 822 206 c 1
 686 127 l 1
 638 211 l 1
 914 370 l 1
 952 304 l 1
 954 304 l 1
 954 303 954 302 954 301 c 2
 1073 94 l 1
 989 46 l 1
 927 153 l 1
 874 11 749 -94 599 -121 c 1
 599 -375 l 2
 599 -603 415 -786 188 -786 c 0
 186 -786 183 -786 181 -786 c 1
 163 -657 l 1
 249 -657 l 2
 376 -657 445 -517 445 -375 c 2
 445 -121 l 1
 242 -85 90 93 90 304 c 0
EndSplineSet
EndChar

StartChar: uni2232.alt
Encoding: 96 -1 96
Width: 720
Flags: HW
HStem: -303 111<147 226.185> 795 108<423.947 512.203>
VStem: 90 100<229.046 377.784> 263 134<-154.922 79.1208 181 327 391 426 526.971 768.296>
LayerCount: 2
Fore
SplineSet
263 426 m 1
 251 420 190 384 190 303 c 0
 190 286 194 219 263 181 c 1
 263 426 l 1
423 408 m 1
 415 415 406 421 397 426 c 1
 397 391 l 1
 411 415 l 1
 423 408 l 1
90 304 m 0
 90 424 174 508 263 534 c 1
 263 667 l 2
 263 795 360 903 486 903 c 0
 488 903 489 903 491 903 c 0
 508 903 525 900 542 895 c 1
 513 786 l 1
 496 792 479 795 462 795 c 0
 409 795 397 728 397 667 c 2
 397 534 l 1
 453 518 507 480 540 421 c 1
 559 454 l 1
 631 413 l 1
 570 307 l 2
 570 306 570 305 570 304 c 1
 568 304 l 1
 535 247 l 1
 397 327 l 1
 397 181 l 1
 427 197 450 224 462 256 c 1
 556 221 l 1
 546 194 505 105 397 73 c 1
 397 -60 l 2
 397 -195 288 -303 154 -303 c 0
 152 -303 149 -303 147 -303 c 1
 132 -192 l 1
 184 -192 l 2
 240 -192 263 -125 263 -60 c 2
 263 73 l 1
 165 102 90 190 90 304 c 0
EndSplineSet
EndChar

StartChar: uni2232.alt.disp
Encoding: 97 -1 97
Width: 929
Flags: HW
HStem: -786 129<181 319.119> -121 118<389.334 445 599 650.452> 611 118<389.103 445 599 654.727> 1260 126<706.269 866.203>
VStem: 90 116<188.701 418.182> 445 154<-503.328 -117.212 -3 611 725.932 1114.22>
LayerCount: 2
Fore
SplineSet
445 611 m 1
 301 576 206 444 206 303 c 0
 206 257 216 212 235 170 c 0
 254 131 313 31 445 -3 c 1
 445 611 l 1
599 729 m 1
 764 699 881 581 927 455 c 1
 989 562 l 1
 1073 514 l 1
 954 307 l 2
 954 306 954 305 954 304 c 1
 952 304 l 1
 914 238 l 1
 638 397 l 1
 686 481 l 1
 823 402 l 1
 813 434 761 570 599 611 c 1
 599 -3 l 1
 643 8 766 52 819 196 c 1
 928 156 l 1
 912 113 830 -79 599 -121 c 1
 599 -375 l 2
 599 -603 415 -786 188 -786 c 0
 186 -786 183 -786 181 -786 c 1
 163 -657 l 1
 249 -657 l 2
 376 -657 445 -517 445 -375 c 2
 445 -121 l 1
 242 -85 90 93 90 304 c 0
 90 515 241 693 445 729 c 1
 445 983 l 2
 445 1197 603 1381 812 1386 c 0
 841 1386 869 1383 897 1376 c 1
 863 1250 l 1
 835 1257 807 1260 778 1260 c 0
 657 1260 599 1121 599 983 c 2
 599 729 l 1
EndSplineSet
EndChar

StartChar: uni2233.alt
Encoding: 98 -1 98
Width: 720
Flags: HW
HStem: -303 111<207 286.185> 795 108<483.947 572.203>
VStem: 323 134<-154.922 79.8465 181 327 391 426 527.879 768.296> 530 100<229.137 377.83>
LayerCount: 2
Fore
SplineSet
457 181 m 1
 497 202 530 246 530 304 c 0
 530 320 526 388 457 426 c 1
 457 181 l 1
296 408 m 1
 309 415 l 1
 323 391 l 1
 323 426 l 1
 313 421 304 415 296 408 c 1
630 303 m 0
 630 183 546 99 457 73 c 1
 457 -60 l 2
 457 -195 348 -303 214 -303 c 0
 212 -303 209 -303 207 -303 c 1
 192 -192 l 1
 244 -192 l 2
 300 -192 323 -125 323 -60 c 2
 323 73 l 1
 291 82 213 114 172 202 c 1
 263 244 l 1
 276 217 297 195 323 181 c 1
 323 327 l 1
 185 247 l 1
 152 304 l 1
 150 304 l 1
 150 305 150 306 150 307 c 2
 89 413 l 1
 161 454 l 1
 180 421 l 1
 196 449 239 509 323 534 c 1
 323 667 l 2
 323 795 420 903 546 903 c 0
 548 903 549 903 551 903 c 0
 568 903 585 900 602 895 c 1
 573 786 l 1
 556 792 539 795 522 795 c 0
 469 795 457 728 457 667 c 2
 457 534 l 1
 555 505 630 417 630 303 c 0
EndSplineSet
EndChar

StartChar: uni2233.alt.disp
Encoding: 99 -1 99
Width: 929
Flags: HW
HStem: -786 129<289 427.119> -121 118<497.223 553 707 761.973> 611 118<496.229 553 707 762.435> 1260 126<814.269 974.203>
VStem: 553 154<-503.328 -117.221 -3 611 726.026 1114.22> 946 116<189.482 420.08>
LayerCount: 2
Fore
SplineSet
707 -3 m 1
 851 34 946 163 946 305 c 0
 946 448 851 574 707 611 c 1
 707 -3 l 1
1062 305 m 0
 1062 90 907 -85 707 -121 c 1
 707 -375 l 2
 707 -603 523 -786 296 -786 c 0
 294 -786 291 -786 289 -786 c 1
 271 -657 l 1
 357 -657 l 2
 484 -657 553 -517 553 -375 c 2
 553 -121 l 1
 497 -111 326 -65 238 122 c 1
 343 170 l 1
 362 131 421 31 553 -3 c 1
 553 611 l 1
 510 600 381 556 329 402 c 1
 466 481 l 1
 514 397 l 1
 238 238 l 1
 200 304 l 1
 198 304 l 1
 198 305 198 306 198 307 c 2
 79 514 l 1
 163 562 l 1
 225 455 l 1
 273 583 389 700 553 729 c 1
 553 983 l 2
 553 1197 711 1381 920 1386 c 0
 949 1386 977 1383 1005 1376 c 1
 971 1250 l 1
 943 1257 915 1260 886 1260 c 0
 765 1260 707 1121 707 983 c 2
 707 729 l 1
 909 693 1062 518 1062 305 c 0
EndSplineSet
EndChar

StartChar: uni2232
Encoding: 100 8754 100
Width: 720
Flags: HW
HStem: -303 111<207 286.185> 795 108<483.947 572.203>
VStem: 323 134<-154.922 80.0293 181 216 281 426 527.879 768.296> 530 100<229.137 377.83>
LayerCount: 2
Fore
SplineSet
457 181 m 1
 497 202 530 246 530 304 c 0
 530 320 526 388 457 426 c 1
 457 181 l 1
297 199 m 1
 305 192 314 186 323 181 c 1
 323 216 l 1
 309 192 l 1
 297 199 l 1
164 386 m 1
 174 413 215 502 323 534 c 1
 323 667 l 2
 323 795 420 903 546 903 c 0
 548 903 549 903 551 903 c 0
 568 903 585 900 602 895 c 1
 573 786 l 1
 556 792 539 795 522 795 c 0
 469 795 457 728 457 667 c 2
 457 534 l 1
 555 505 630 417 630 303 c 0
 630 183 546 99 457 73 c 1
 457 -60 l 2
 457 -195 348 -303 214 -303 c 0
 212 -303 209 -303 207 -303 c 1
 192 -192 l 1
 244 -192 l 2
 300 -192 323 -125 323 -60 c 2
 323 73 l 1
 267 89 213 127 180 186 c 1
 161 153 l 1
 89 194 l 1
 150 300 l 2
 150 301 150 303 150 304 c 1
 153 304 l 1
 185 360 l 1
 323 281 l 1
 323 426 l 1
 293 410 270 383 258 351 c 1
 164 386 l 1
EndSplineSet
EndChar

StartChar: uni2232.disp
Encoding: 101 -1 101
Width: 929
Flags: HW
HStem: -786 129<289 427.119> -121 118<496.945 553 707 761.973> 611 118<501.332 553 707 762.435> 1260 126<814.269 974.203>
VStem: 553 154<-503.328 -117.221 -3 611 725.221 1114.22> 946 116<189.482 420.08>
LayerCount: 2
Fore
SplineSet
707 -3 m 1
 851 34 946 163 946 305 c 0
 946 448 851 574 707 611 c 1
 707 -3 l 1
1062 305 m 0
 1062 90 907 -85 707 -121 c 1
 707 -375 l 2
 707 -603 523 -786 296 -786 c 0
 294 -786 291 -786 289 -786 c 1
 271 -657 l 1
 357 -657 l 2
 484 -657 553 -517 553 -375 c 2
 553 -121 l 1
 511 -113 306 -66 225 153 c 1
 163 46 l 1
 79 94 l 1
 198 301 l 2
 198 302 198 303 198 304 c 1
 200 304 l 1
 238 370 l 1
 514 211 l 1
 466 127 l 1
 329 206 l 1
 338 178 390 38 553 -3 c 1
 553 611 l 1
 513 601 387 559 333 412 c 1
 224 452 l 1
 239 494 321 688 553 729 c 1
 553 983 l 2
 553 1197 711 1381 920 1386 c 0
 949 1386 977 1383 1005 1376 c 1
 971 1250 l 1
 943 1257 915 1260 886 1260 c 0
 765 1260 707 1121 707 983 c 2
 707 729 l 1
 909 693 1062 518 1062 305 c 0
EndSplineSet
EndChar

StartChar: uni2A0B
Encoding: 102 10763 102
Width: 630
Flags: HW
HStem: -303 111<147 226.185> 21 90<221 263> 510 76<248 263 397 427.25> 795 108<423.947 512.203>
VStem: 263 134<-154.922 21 130 163 487 506 586 768.296> 465 42<414 458.814> 486 41<163.128 189.537>
LayerCount: 2
Fore
SplineSet
263 163 m 1xf8
 221 105 l 1
 263 111 l 1
 263 163 l 1xf8
263 510 m 1
 248 510 l 1
 263 487 l 1
 263 510 l 1
106 21 m 1
 87 105 l 1
 220 290 l 1
 87 493 l 1
 108 586 l 1
 263 586 l 1
 263 667 l 2
 263 795 360 903 486 903 c 0xfa
 488 903 489 903 491 903 c 0
 508 903 525 900 542 895 c 1
 513 786 l 1
 496 792 479 795 462 795 c 0
 409 795 397 728 397 667 c 2
 397 586 l 1
 507 586 l 1
 507 414 l 1
 465 414 l 1xfc
 433 492 419 505 397 506 c 1
 397 130 l 1
 438 138 477 158 486 197 c 1
 527 188 l 1xfa
 480 21 l 1
 397 21 l 1
 397 -60 l 2
 397 -195 288 -303 154 -303 c 0
 152 -303 149 -303 147 -303 c 1
 132 -192 l 1
 184 -192 l 2
 240 -192 263 -125 263 -60 c 2
 263 21 l 1
 106 21 l 1
EndSplineSet
EndChar

StartChar: uni2A0B.disp
Encoding: 103 -1 103
Width: 882
Flags: HW
HStem: -786 129<181 319.119> -205 110<342.692 445> -20 20G<830 885> 723 90<285 445 599 738.146> 1260 126<706.269 866.203>
VStem: 445 154<-503.328 -205 -84 150 496 721 813 1114.22> 813 48<614 652.93> 838 47<-36.1481 -9.3617>
LayerCount: 2
Fore
SplineSet
445 150 m 1xfc
 255 -108 l 1
 445 -95 l 1
 445 150 l 1xfc
445 723 m 1
 285 725 l 1
 445 496 l 1
 445 723 l 1
128 -205 m 1
 105 -108 l 1
 397 289 l 1
 105 705 l 1
 130 813 l 1
 445 813 l 1
 445 983 l 2
 445 1197 603 1381 812 1386 c 0
 841 1386 869 1383 897 1376 c 1
 863 1250 l 1
 835 1257 807 1260 778 1260 c 0
 657 1260 599 1121 599 983 c 2
 599 813 l 1
 861 813 l 1
 861 614 l 1
 813 614 l 1xfe
 788 673 736 719 672 720 c 2
 599 721 l 1
 599 -84 l 1
 649 -81 l 2
 729 -76 822 -69 838 0 c 1
 885 -11 l 1xfd
 831 -205 l 1
 599 -205 l 1
 599 -375 l 2
 599 -603 415 -786 188 -786 c 0
 186 -786 183 -786 181 -786 c 1
 163 -657 l 1
 249 -657 l 2
 376 -657 445 -517 445 -375 c 2
 445 -205 l 1
 128 -205 l 1
EndSplineSet
EndChar

StartChar: uni2A0B.sf
Encoding: 104 -1 104
Width: 630
Flags: HW
HStem: -303 111<147 226.185> 21 114<243 263 397 507> 472 114<243 263 397 507> 795 108<423.947 512.203>
VStem: 263 134<-154.922 21 135 161 447 472 586 768.296>
LayerCount: 2
Fore
SplineSet
263 161 m 1
 243 135 l 1
 263 135 l 1
 263 161 l 1
263 472 m 1
 243 472 l 1
 263 447 l 1
 263 472 l 1
87 21 m 1
 87 135 l 1
 218 304 l 1
 87 472 l 1
 87 586 l 1
 263 586 l 1
 263 667 l 2
 263 795 360 903 486 903 c 0
 488 903 489 903 491 903 c 0
 508 903 525 900 542 895 c 1
 513 786 l 1
 496 792 479 795 462 795 c 0
 409 795 397 728 397 667 c 2
 397 586 l 1
 507 586 l 1
 507 472 l 1
 397 472 l 1
 397 135 l 1
 507 135 l 1
 507 21 l 1
 397 21 l 1
 397 -60 l 2
 397 -195 288 -303 154 -303 c 0
 152 -303 149 -303 147 -303 c 1
 132 -192 l 1
 184 -192 l 2
 240 -192 263 -125 263 -60 c 2
 263 21 l 1
 87 21 l 1
EndSplineSet
EndChar

StartChar: uni2A0B.sf.disp
Encoding: 105 -1 105
Width: 882
Flags: HW
HStem: -786 129<181 319.119> -205 133<280 445 599 861> 680 133<280 445 599 861> 1260 126<706.269 866.203>
VStem: 445 154<-503.328 -205 -72 141 467 680 813 1114.22>
LayerCount: 2
Fore
SplineSet
445 141 m 1
 280 -72 l 1
 445 -72 l 1
 445 141 l 1
445 680 m 1
 280 680 l 1
 445 467 l 1
 445 680 l 1
105 -205 m 1
 105 -72 l 1
 396 304 l 1
 105 680 l 1
 105 813 l 1
 445 813 l 1
 445 983 l 2
 445 1197 603 1381 812 1386 c 0
 841 1386 869 1383 897 1376 c 1
 863 1250 l 1
 835 1257 807 1260 778 1260 c 0
 657 1260 599 1121 599 983 c 2
 599 813 l 1
 861 813 l 1
 861 680 l 1
 599 680 l 1
 599 -72 l 1
 861 -72 l 1
 861 -205 l 1
 599 -205 l 1
 599 -375 l 2
 599 -603 415 -786 188 -786 c 0
 186 -786 183 -786 181 -786 c 1
 163 -657 l 1
 249 -657 l 2
 376 -657 445 -517 445 -375 c 2
 445 -205 l 1
 105 -205 l 1
EndSplineSet
EndChar

StartChar: uni0302
Encoding: 114 770 106
Width: 420
Flags: HW
HStem: 679 205
LayerCount: 2
Fore
SplineSet
-21 769 m 1
 210 884 l 1
 441 769 l 1
 399 679 l 1
 210 764 l 1
 21 679 l 1
 -21 769 l 1
EndSplineSet
EndChar

StartChar: uni0302.big1
Encoding: 115 -1 107
Width: 756
Flags: HW
HStem: 676 208
LayerCount: 2
Fore
SplineSet
-13 772 m 1
 378 884 l 1
 769 772 l 1
 743 676 l 1
 378 764 l 1
 13 676 l 1
 -13 772 l 1
EndSplineSet
EndChar

StartChar: uni0302.big2
Encoding: 116 -1 108
Width: 1092
Flags: HW
HStem: 675 98<7.71429 26 1066 1084.29>
LayerCount: 2
Fore
SplineSet
-9 773 m 1
 546 884 l 1
 1101 773 l 1
 1083 675 l 1
 546 764 l 1
 9 675 l 1
 -9 773 l 1
EndSplineSet
EndChar

StartChar: uni0302.big3
Encoding: 117 -1 109
Width: 1428
Flags: HW
HStem: 674 210
LayerCount: 2
Fore
SplineSet
-7 774 m 1
 714 884 l 1
 1435 774 l 1
 1421 674 l 1
 714 764 l 1
 7 674 l 1
 -7 774 l 1
EndSplineSet
EndChar

StartChar: uni0302.big4
Encoding: 118 -1 110
Width: 1764
Flags: HW
HStem: 674 100<5.16 50.5091>
LayerCount: 2
Fore
SplineSet
-6 774 m 1
 882 884 l 1
 1770 774 l 1
 1758 674 l 1
 882 764 l 1
 6 674 l 1
 -6 774 l 1
EndSplineSet
EndChar

StartChar: uni0302.big5
Encoding: 119 -1 111
Width: 2100
Flags: HW
HStem: 674 100<4.3 62.1364>
LayerCount: 2
Fore
SplineSet
-5 774 m 1
 1050 884 l 1
 2105 774 l 1
 2095 674 l 1
 1050 764 l 1
 5 674 l 1
 -5 774 l 1
EndSplineSet
EndChar

StartChar: uni0303
Encoding: 120 771 112
Width: 420
Flags: HW
HStem: 674 100<259.13 333.51> 774 100<87.9603 161.062>
LayerCount: 2
Fore
SplineSet
122 874 m 0x40
 213 874 256 774 298 774 c 0x80
 327 774 338 806 356 828 c 1
 420 774 l 1x40
 384 731 354 674 298 674 c 0x80
 250 674 209 704 175 738 c 0
 159 754 144 774 122 774 c 0
 93 774 82 741 64 720 c 1
 0 774 l 1
 36 816 66 874 122 874 c 0x40
EndSplineSet
EndChar

StartChar: uni0303.big1
Encoding: 121 -1 113
Width: 756
Flags: HW
HStem: 674 100<452.709 632.203> 774 100<123.797 303.291>
LayerCount: 2
Fore
SplineSet
550 674 m 0x80
 396 674 330 774 206 774 c 0
 146 774 95 737 46 704 c 1
 0 774 l 1
 65 817 127 874 206 874 c 0x40
 360 874 426 774 550 774 c 0x80
 610 774 661 811 710 843 c 1
 756 774 l 1x40
 691 731 629 674 550 674 c 0x80
EndSplineSet
EndChar

StartChar: uni0303.big2
Encoding: 122 -1 114
Width: 1092
Flags: HW
HStem: 674 100<649.345 918.074> 774 100<173.926 442.009>
LayerCount: 2
Fore
SplineSet
802 674 m 0x80
 586 674 484 774 290 774 c 0
 200 774 116 735 35 698 c 1
 0 774 l 1
 94 817 186 874 290 874 c 0x40
 501 874 611 774 802 774 c 0x80
 892 774 976 812 1057 850 c 1
 1092 774 l 1x40
 998 731 906 674 802 674 c 0x80
EndSplineSet
EndChar

StartChar: uni0303.big3
Encoding: 123 -1 115
Width: 1428
Flags: HW
HStem: 674 100<848.246 1203.18> 774 100<230.456 577.267>
LayerCount: 2
Fore
SplineSet
1054 674 m 0x80
 786 674 625 774 374 774 c 0
 254 774 140 734 27 695 c 1
 0 774 l 1
 123 816 243 874 374 874 c 0x40
 634 874 803 774 1054 774 c 0x80
 1174 774 1288 813 1401 852 c 1
 1428 774 l 1x40
 1305 731 1185 674 1054 674 c 0x80
EndSplineSet
EndChar

StartChar: uni0303.big4
Encoding: 124 -1 116
Width: 1764
Flags: HW
HStem: 674 100<1055.1 1486.51> 774 100<281.074 707.945>
LayerCount: 2
Fore
SplineSet
1306 674 m 0x80
 994 674 758 774 458 774 c 0
 309 774 165 734 23 694 c 1
 0 774 l 1
 151 816 300 874 458 874 c 0x40
 763 874 1010 774 1306 774 c 0x80
 1455 774 1599 814 1741 854 c 1
 1764 774 l 1x40
 1613 731 1464 674 1306 674 c 0x80
EndSplineSet
EndChar

StartChar: uni0303.big5
Encoding: 125 -1 117
Width: 2100
Flags: HW
HStem: 674 100<1302.43 1772.18> 774 100<336.149 801.76>
LayerCount: 2
Fore
SplineSet
1558 674 m 0x80
 1210 674 875 774 542 774 c 0
 365 774 191 733 19 693 c 1
 0 774 l 1
 179 816 357 874 542 874 c 0x40
 878 874 1224 774 1558 774 c 0x80
 1735 774 1909 814 2081 855 c 1
 2100 774 l 1x40
 1921 731 1743 674 1558 674 c 0x80
EndSplineSet
EndChar

StartChar: uni0311
Encoding: 126 785 118
Width: 420
Flags: HW
HStem: 774 100<142.133 277.867>
LayerCount: 2
Fore
SplineSet
76 692 m 1
 0 756 l 1
 54 821 126 874 210 874 c 0
 294 874 366 821 420 756 c 1
 344 692 l 1
 308 734 265 774 210 774 c 0
 155 774 112 734 76 692 c 1
EndSplineSet
EndChar

StartChar: uni0311.big1
Encoding: 127 -1 119
Width: 756
Flags: HW
HStem: 774 100<212.664 543.336>
LayerCount: 2
Fore
SplineSet
55 682 m 1
 0 766 l 1
 112 839 244 874 378 874 c 0
 512 874 644 839 756 766 c 1
 701 682 l 1
 606 745 492 774 378 774 c 0
 264 774 150 745 55 682 c 1
EndSplineSet
EndChar

StartChar: uni0311.big2
Encoding: 128 -1 120
Width: 1092
Flags: HW
HStem: 774 100<286.051 805.949>
LayerCount: 2
Fore
SplineSet
41 679 m 1
 0 770 l 1
 171 847 359 874 546 874 c 0
 733 874 921 847 1092 770 c 1
 1051 679 l 1
 893 750 719 774 546 774 c 0
 373 774 199 750 41 679 c 1
EndSplineSet
EndChar

StartChar: uni0311.big3
Encoding: 129 -1 121
Width: 1428
Flags: HW
HStem: 774 100<453.948 974.052>
LayerCount: 2
Fore
SplineSet
33 677 m 1
 0 771 l 1
 229 851 472 874 714 874 c 0
 956 874 1199 851 1428 771 c 1
 1395 677 l 1
 1177 753 945 774 714 774 c 0
 483 774 251 753 33 677 c 1
EndSplineSet
EndChar

StartChar: uni0311.big4
Encoding: 130 -1 122
Width: 1764
Flags: HW
HStem: 676 96<25.0312 79.251 1684.75 1738.97> 774 100<621.449 1142.55>
LayerCount: 2
Fore
SplineSet
27 676 m 1
 0 772 l 1
 286 853 585 874 882 874 c 0
 1179 874 1478 853 1764 772 c 1
 1737 676 l 1
 1459 754 1170 774 882 774 c 0
 594 774 305 754 27 676 c 1
EndSplineSet
EndChar

StartChar: uni0311.big5
Encoding: 131 -1 123
Width: 2100
Flags: HW
HStem: 675 98<21.3571 86.1145 2013.89 2078.64> 774 100<788.242 1311.76>
LayerCount: 2
Fore
SplineSet
23 675 m 1
 0 773 l 1
 343 854 697 874 1050 874 c 0
 1403 874 1757 854 2100 773 c 1
 2077 675 l 1
 1741 755 1395 774 1050 774 c 0
 705 774 359 755 23 675 c 1
EndSplineSet
EndChar

StartChar: uni20D7
Encoding: 132 8407 124
Width: 450
Flags: HW
HStem: 762 75<90 321>
LayerCount: 2
Fore
SplineSet
466 799 m 1
 314 647 l 1
 261 701 l 1
 322 762 l 1
 90 762 l 1
 90 837 l 1
 321 837 l 1
 261 897 l 1
 314 951 l 1
 466 799 l 1
EndSplineSet
EndChar

StartChar: uni0335
Encoding: 133 821 125
Width: 300
Flags: HW
HStem: 296 84<4 296>
VStem: -4 308
LayerCount: 2
Fore
SplineSet
4 380 m 1
 304 380 l 1
 296 296 l 1
 -4 296 l 1
 4 380 l 1
EndSplineSet
EndChar

StartChar: uni0337
Encoding: 134 823 126
Width: 300
Flags: HW
HStem: 188 300
VStem: -4 308
LayerCount: 2
Fore
SplineSet
4 288 m 1
 304 488 l 1
 296 388 l 1
 -4 188 l 1
 4 288 l 1
EndSplineSet
EndChar

StartChar: uni0338
Encoding: 135 824 127
Width: 480
Flags: HW
HStem: 688 20G<391.714 454.294>
LayerCount: 2
Fore
SplineSet
493 674 m 1
 81 -457 l 1
 -13 -423 l 1
 399 708 l 1
 493 674 l 1
EndSplineSet
EndChar
